<svg width="250" height="50" viewBox="0 0 250 50" fill="none" xmlns="http://www.w3.org/2000/svg">
<path d="M250 30.0319C250 31.9489 249.048 33.6706 247.144 35.197C245.277 36.688 243.242 37.7529 241.039 38.3919C238.874 39.0664 236.97 39.4036 235.327 39.4036C235.14 39.4036 234.879 39.1906 234.543 38.7646C233.61 37.5932 233.143 36.2265 233.143 34.6645V34.2918C236.055 34.2918 238.277 33.8126 239.807 32.8541C241.338 31.8956 242.103 30.9017 242.103 29.8722C242.103 29.1977 241.637 28.4877 240.703 27.7423C239.77 26.9968 238.743 26.3401 237.623 25.7721C236.503 25.2041 235.476 24.4586 234.543 23.5357C233.61 22.5772 233.143 21.5832 233.143 20.5538C233.143 18.3883 234.562 16.4004 237.399 14.59C240.237 12.7795 243.261 11.8743 246.472 11.8743C246.845 11.8743 247.33 12.3713 247.928 13.3653C248.525 14.3237 248.843 15.3177 248.88 16.3472C248.133 16.3472 247.013 16.5602 245.52 16.9861C242.57 17.8736 241.095 18.9741 241.095 20.2875C241.095 21.2105 242.551 22.4707 245.464 24.0681C246.584 24.6716 247.611 25.5058 248.544 26.5708C249.477 27.6358 249.963 28.7895 250 30.0319Z" fill="#C53E38"/>
<path d="M228.468 1.278C228.394 2.09447 228.3 4.33089 228.188 7.98726C230.988 7.98726 232.389 8.04051 232.389 8.147C232.389 9.35396 232.202 10.4367 231.828 11.3951C231.455 12.3181 231.1 12.7796 230.764 12.7796H228.132C228.058 18.0334 228.02 22.311 228.02 25.6124C228.02 28.8783 228.076 31.0615 228.188 32.1619C228.412 34.0078 229.178 35.5165 230.484 36.688C230.484 37.0785 229.756 37.6465 228.3 38.3919C226.881 39.1374 225.537 39.5102 224.268 39.5102C224.156 39.5102 223.932 39.3327 223.596 38.9777C223.297 38.6227 222.961 38.037 222.588 37.2205C222.252 36.404 222.028 35.6053 221.916 34.8243C221.841 34.0433 221.804 31.2567 221.804 26.4644C221.804 21.672 221.86 17.1459 221.972 12.8861L218.836 12.9393C218.649 12.7618 218.556 11.9986 218.556 10.6497C218.556 9.26522 218.724 8.43099 219.06 8.147C219.881 8.11151 220.87 8.07601 222.028 8.04051C222.028 5.98158 221.972 4.65038 221.86 4.0469C221.748 3.44342 221.692 3.08843 221.692 2.98194C221.692 2.62695 222.326 2.21871 223.596 1.75723C224.903 1.29574 226.041 1.065 227.012 1.065C227.983 1.065 228.468 1.136 228.468 1.278Z" fill="#C53E38"/>
<path d="M216.191 24.2811C216.191 28.7184 216.247 31.3099 216.359 32.0553C216.658 34.0078 217.293 35.41 218.263 36.2619C218.263 36.6524 217.517 37.2381 216.023 38.0191C214.567 38.8001 213.242 39.1906 212.047 39.1906C211.711 39.1906 211.356 38.7113 210.983 37.7529C210.609 36.8299 210.385 36.1377 210.311 35.6762C210.273 35.2147 210.236 34.984 210.199 34.984L210.031 35.0905C208.052 36.5814 205.737 37.3269 203.086 37.3269C200.435 37.3269 198.382 36.7234 196.926 35.5165C195.507 34.274 194.798 32.6588 194.798 30.6709C194.798 28.6829 195.246 27.0145 196.142 25.6656C197.075 24.2811 198.158 23.2339 199.39 22.5239C200.622 21.8139 201.985 21.246 203.478 20.82C205.756 20.11 207.548 19.755 208.855 19.755L208.967 19.7018C208.967 17.9623 206.652 17.0926 202.022 17.0926C200.193 17.0926 198.83 17.1636 197.934 17.3056H197.878C197.878 16.5956 198.102 15.7082 198.55 14.6432C199.035 13.5782 199.427 12.886 199.726 12.5665C200.062 12.247 201.406 12.0873 203.758 12.0873C208.015 12.0873 211.151 12.8683 213.167 14.4302C215.183 15.9566 216.191 18.3351 216.191 21.5654V24.2811ZM209.975 27.689V25.6656C209.975 24.8846 209.956 24.4941 209.919 24.4941C207.417 24.4941 205.252 25.1153 203.422 26.3578C202.265 27.1388 201.686 28.115 201.686 29.2864C201.686 30.0319 201.966 30.6531 202.526 31.1501C203.086 31.6471 203.926 31.8956 205.046 31.8956C206.204 31.8956 207.305 31.5761 208.351 30.9371C209.433 30.2981 209.975 29.2154 209.975 27.689Z" fill="#C53E38"/>
<path d="M170.002 15.3354L170.058 9.58465C170.058 8.0582 170.021 7.22398 169.946 7.08199C169.536 6.6915 168.994 5.75078 168.322 4.25983C167.687 2.76889 167.37 1.81042 167.37 1.38443C167.781 0.993949 174.333 0.798706 187.027 0.798706C190.164 0.798706 191.732 0.869704 191.732 1.0117C191.732 1.75717 191.545 2.57364 191.172 3.46111C190.836 4.34858 190.462 5.05856 190.052 5.59104C189.678 6.12352 189.398 6.37201 189.212 6.33651C189.062 6.26551 188.297 6.23002 186.915 6.23002C185.571 6.23002 183.686 6.31876 181.259 6.49626C178.832 6.63825 177.507 6.81574 177.283 7.02874C177.059 7.24173 176.947 9.19416 176.947 12.886L177.003 15.1225C178.496 15.087 180.699 15.0692 183.611 15.0692C186.523 15.0692 187.979 15.1225 187.979 15.229C187.979 16.5069 187.531 17.9624 186.635 19.5953C186.299 20.1633 186.094 20.4295 186.019 20.394C185.049 20.394 183.387 20.4828 181.035 20.6603C178.683 20.8023 177.32 20.9797 176.947 21.1927C176.909 21.2282 176.891 22.7192 176.891 25.6656C176.891 28.612 176.984 30.1739 177.171 30.3514C177.768 30.9194 180.979 31.2034 186.803 31.2034C189.156 31.2034 190.742 31.1501 191.564 31.0436C192.385 30.9017 192.796 30.8484 192.796 30.8839C192.796 31.7359 192.497 32.7476 191.9 33.919C191.302 35.0905 190.668 35.978 189.996 36.5815C189.622 36.9364 186.262 37.1139 179.915 37.1139C173.605 37.1139 170.338 36.9719 170.114 36.688C169.89 36.5105 169.778 34.8065 169.778 31.5761C169.778 28.3102 169.816 24.8669 169.89 21.246C169.218 20.678 168.565 19.7905 167.93 18.5836C167.333 17.3766 167.034 16.3472 167.034 15.4952C167.034 15.4597 168.023 15.4064 170.002 15.3354Z" fill="#C53E38"/>
<path d="M163.369 30.0319C163.369 31.9489 162.417 33.6706 160.513 35.197C158.646 36.688 156.611 37.7529 154.408 38.3919C152.243 39.0664 150.339 39.4036 148.696 39.4036C148.509 39.4036 148.248 39.1906 147.912 38.7646C146.978 37.5932 146.512 36.2265 146.512 34.6645V34.2918C149.424 34.2918 151.645 33.8126 153.176 32.8541C154.707 31.8956 155.472 30.9017 155.472 29.8722C155.472 29.1977 155.006 28.4877 154.072 27.7423C153.139 26.9968 152.112 26.3401 150.992 25.7721C149.872 25.2041 148.845 24.4586 147.912 23.5357C146.978 22.5772 146.512 21.5832 146.512 20.5538C146.512 18.3883 147.93 16.4004 150.768 14.59C153.605 12.7795 156.63 11.8743 159.841 11.8743C160.214 11.8743 160.699 12.3713 161.297 13.3653C161.894 14.3237 162.211 15.3177 162.249 16.3472C161.502 16.3472 160.382 16.5602 158.888 16.9861C155.939 17.8736 154.464 18.9741 154.464 20.2875C154.464 21.2105 155.92 22.4707 158.832 24.0681C159.953 24.6716 160.979 25.5058 161.913 26.5708C162.846 27.6358 163.331 28.7895 163.369 30.0319Z" fill="#C53E38"/>
<path d="M136.36 34.132L136.304 33.0138L136.248 32.9073C135.352 34.2208 134.213 35.268 132.832 36.049C131.488 36.8299 130.162 37.2204 128.856 37.2204C124.935 37.2204 122.695 34.3273 122.135 28.541C122.06 27.618 122.023 25.2396 122.023 21.4057C122.023 17.5719 122.191 15.2999 122.527 14.59C123.498 13.8445 125.066 13.4717 127.231 13.4717C128.09 13.4717 128.613 13.5605 128.8 13.738C128.8 13.7735 128.781 14.2527 128.744 15.1757C128.557 17.8736 128.464 19.9503 128.464 21.4057C128.464 22.8612 128.482 23.9439 128.52 24.6539C128.557 25.3283 128.576 25.7721 128.576 25.9851C128.613 26.1625 128.669 26.4998 128.744 26.9968C128.856 27.4938 129.005 27.9197 129.192 28.2747C129.752 29.3042 130.61 29.8189 131.768 29.8189C132.963 29.8189 134.008 29.2687 134.904 28.1682C135.837 27.0323 136.285 26.2335 136.248 25.7721V23.9616C136.248 17.4654 136.36 13.9687 136.584 13.4717C136.771 13.1523 137.349 12.815 138.32 12.46C139.328 12.105 140.318 11.9276 141.288 11.9276C142.259 11.9276 142.819 11.9985 142.969 12.1405L142.857 14.6432C142.633 19.7195 142.521 23.6421 142.521 26.411C142.521 29.1799 142.595 30.9371 142.745 31.6826C143.006 33.4575 143.51 34.8775 144.257 35.9425C144.257 36.2974 143.491 36.8654 141.96 37.6464C140.43 38.4274 139.123 38.8179 138.04 38.8179C137.742 38.8179 137.405 38.2854 137.032 37.2204C136.659 36.1554 136.435 35.126 136.36 34.132Z" fill="#C53E38"/>
<path d="M103.261 10.3301L103.205 12.8328C113.137 12.8328 118.102 16.4891 118.102 23.8019C118.102 25.7898 117.673 27.6002 116.814 29.2332C115.993 30.8306 114.966 32.1086 113.734 33.067C112.502 33.99 111.158 34.771 109.702 35.41C107.2 36.5104 104.96 37.0607 102.981 37.0607V37.8594C102.981 43.1842 103.131 46.7341 103.429 48.509C102.944 48.9705 102.104 49.3255 100.909 49.574C99.7145 49.858 98.7438 50 97.997 50C97.2503 50 96.877 49.9467 96.877 49.8402C96.7276 48.7042 96.653 46.3613 96.653 42.8115L96.933 18.0511C96.933 15.1402 96.877 13.1167 96.765 11.9808C97.213 11.5548 97.9597 11.1466 99.0051 10.7561C100.088 10.3656 101.021 10.1703 101.805 10.1703C102.589 10.1703 103.075 10.2236 103.261 10.3301ZM102.981 28.4877L103.037 31.1501C105.315 31.1501 107.312 30.5289 109.03 29.2864C110.747 28.044 111.606 26.2513 111.606 23.9084C111.606 20.0745 108.787 18.1576 103.149 18.1576L103.093 18.8498C103.093 19.3113 103.093 19.9148 103.093 20.6602L102.981 28.4877Z" fill="#C53E38"/>
<path d="M59.8614 29.5527L59.6934 17.0394C59.6934 14.7675 59.7867 13.5428 59.9734 13.3653C60.4214 12.9748 61.1121 12.6198 62.0455 12.3003C62.9789 11.9453 63.875 11.7678 64.7337 11.7678C65.5925 11.7678 66.0218 11.8388 66.0218 11.9808C65.8725 13.5428 65.7978 14.732 65.7978 15.5484C65.7978 16.3649 65.8351 16.7731 65.9098 16.7731C65.9845 16.7731 66.0965 16.7021 66.2458 16.5602C66.3952 16.3827 66.6565 16.1342 67.0299 15.8147C67.4406 15.4597 68.1686 14.9982 69.214 14.4302C70.2968 13.8267 71.2862 13.525 72.1823 13.525C74.6091 13.525 76.4386 14.5545 77.6706 16.6134C79.7988 13.7735 82.151 12.3536 84.7271 12.3536C87.042 12.3536 88.7034 13.2943 89.7115 15.1757C90.7569 17.2701 91.373 19.3646 91.5596 21.459C91.7836 24.5119 91.8957 27.6713 91.8957 30.9372L91.6716 37.1672C91.6716 37.4157 91.0556 37.6464 89.8235 37.8594C88.5914 38.1079 87.602 38.2321 86.8553 38.2321L85.0632 37.9659C85.4739 34.4515 85.6792 31.6116 85.6792 29.4462C85.6792 27.2808 85.6419 25.7366 85.5672 24.8136C85.5299 23.8551 85.3992 22.9144 85.1752 21.9915C84.9512 21.033 84.5965 20.3585 84.1111 19.968C83.6631 19.542 83.0844 19.3291 82.375 19.3291C81.6656 19.3291 81.0309 19.5243 80.4708 19.9148C79.9108 20.2698 79.5001 20.6248 79.2387 20.9797C79.0147 21.3347 78.9027 21.5655 78.9027 21.672C79.0147 22.8079 79.0707 25.4348 79.0707 29.5527L78.8467 33.7593C78.8467 34.0433 78.2494 34.2918 77.0546 34.5048C75.8598 34.7178 74.8891 34.8243 74.1424 34.8243L72.3503 34.558C72.6863 31.6826 72.8543 29.0025 72.8543 26.5176C72.8543 23.9971 72.705 22.24 72.4063 21.246C72.1449 20.2165 71.4169 19.7018 70.2221 19.7018C69.0274 19.7018 68.0193 20.2698 67.1979 21.4057C66.3765 22.5417 65.9658 23.4114 65.9658 24.0149V25.1331L66.0218 30.7774C66.0218 34.2563 65.9472 36.0845 65.7978 36.262C64.8644 37.1139 62.9043 37.5399 59.9174 37.5399C59.6187 37.5399 59.4694 37.4867 59.4694 37.3802C59.7307 35.8537 59.8614 33.2446 59.8614 29.5527Z" fill="#C53E38"/>
<path d="M54.414 24.2811C54.414 28.7184 54.47 31.3099 54.582 32.0553C54.8807 34.0078 55.5154 35.41 56.4862 36.2619C56.4862 36.6524 55.7395 37.2381 54.246 38.0191C52.7899 38.8001 51.4645 39.1906 50.2697 39.1906C49.9337 39.1906 49.579 38.7113 49.2057 37.7529C48.8323 36.8299 48.6083 36.1377 48.5336 35.6762C48.4963 35.2147 48.4589 34.984 48.4216 34.984L48.2536 35.0905C46.2748 36.5814 43.96 37.3269 41.3091 37.3269C38.6582 37.3269 36.6048 36.7234 35.1487 35.5165C33.7299 34.274 33.0205 32.6588 33.0205 30.6709C33.0205 28.6829 33.4685 27.0145 34.3646 25.6656C35.298 24.2811 36.3808 23.2339 37.6128 22.5239C38.8449 21.8139 40.2077 21.246 41.7011 20.82C43.9786 20.11 45.7707 19.755 47.0775 19.755L47.1895 19.7018C47.1895 17.9623 44.8747 17.0926 40.245 17.0926C38.4156 17.0926 37.0528 17.1636 36.1567 17.3056H36.1007C36.1007 16.5956 36.3247 15.7082 36.7728 14.6432C37.2581 13.5782 37.6502 12.886 37.9489 12.5665C38.2849 12.247 39.629 12.0873 41.9811 12.0873C46.2374 12.0873 49.3737 12.8683 51.3898 14.4302C53.406 15.9566 54.414 18.3351 54.414 21.5654V24.2811ZM48.1976 27.689V25.6656C48.1976 24.8846 48.1789 24.4941 48.1416 24.4941C45.6401 24.4941 43.4746 25.1153 41.6451 26.3578C40.4877 27.1388 39.909 28.115 39.909 29.2864C39.909 30.0319 40.189 30.6531 40.7491 31.1501C41.3091 31.6471 42.1492 31.8956 43.2692 31.8956C44.4267 31.8956 45.5281 31.5761 46.5735 30.9371C47.6562 30.2981 48.1976 29.2154 48.1976 27.689Z" fill="#C53E38"/>
<path d="M16.5772 37.8062C11.1261 37.8062 7.00049 36.3152 4.2003 33.3333C1.4001 30.3514 0 26.4998 0 21.7785C0 17.7671 0.933401 14.0398 2.8002 10.5964C3.88294 8.57295 5.2457 6.79801 6.88849 5.27156C8.53127 3.74512 10.7528 2.48491 13.553 1.49095C16.3532 0.496982 19.5267 0 23.0736 0C24.2684 0 25.3325 0.106496 26.2659 0.319488C27.1993 0.53248 27.666 0.674475 27.666 0.745474C27.666 2.44941 27.5353 4.40184 27.2739 6.60277C27.0499 8.76819 26.9192 9.86865 26.8819 9.90415C26.6952 10.0816 25.9112 10.3656 24.5297 10.7561C23.1856 11.1466 22.1776 11.3419 21.5055 11.3419V11.0224C21.5055 9.42492 21.2628 8.30671 20.7775 7.66773C20.2921 7.02875 19.452 6.70926 18.2573 6.70926C15.6064 6.70926 13.1423 8.04047 10.8648 10.7029C8.58728 13.3298 7.44853 16.9507 7.44853 21.5655C7.44853 24.0149 8.08324 26.2158 9.35266 28.1683C10.0247 29.1977 10.9954 30.0319 12.2649 30.6709C13.5716 31.3099 15.1024 31.6294 16.8572 31.6294C20.3668 31.6294 23.783 30.0852 27.1059 26.9968C27.2553 26.9968 27.554 27.2275 28.002 27.689C28.4874 28.115 28.9541 28.7007 29.4021 29.4462C30.3355 30.8662 30.8022 31.7359 30.8022 32.0554C30.8022 32.3749 30.2235 32.9783 29.0661 33.8658C27.9086 34.7178 26.1539 35.5875 23.8017 36.475C21.4495 37.3624 19.0413 37.8062 16.5772 37.8062Z" fill="#C53E38"/>
</svg>
