<svg width="29" height="28" viewBox="0 0 29 28" fill="none" xmlns="http://www.w3.org/2000/svg">
<g clip-path="url(#clip0_192_31)">
<path fill-rule="evenodd" clip-rule="evenodd" d="M24.0157 25.2H4.98535C3.96109 25.2 3.20472 24.2242 3.59104 23.3268C5.38351 19.1772 9.59455 16.8 14.4998 16.8C19.4065 16.8 23.6175 19.1772 25.41 23.3268C25.7963 24.2242 25.04 25.2 24.0157 25.2ZM8.57917 8.39998C8.57917 5.31158 11.236 2.79998 14.4998 2.79998C17.765 2.79998 20.4204 5.31158 20.4204 8.39998C20.4204 11.4884 17.765 14 14.4998 14C11.236 14 8.57917 11.4884 8.57917 8.39998ZM28.9357 24.6904C27.8597 19.9878 24.4938 16.5171 20.0637 14.9421C22.4112 13.1543 23.7803 10.2633 23.2771 7.0979C22.6939 3.4257 19.4642 0.487168 15.5655 0.0587676C10.1837 -0.533432 5.61885 3.42858 5.61885 8.39998C5.61885 11.046 6.91547 13.4035 8.93736 14.9421C4.50578 16.5171 1.14139 19.9878 0.0638348 24.6904C-0.326926 26.3998 1.12955 28 2.97826 28H26.0213C27.8715 28 29.328 26.3998 28.9357 24.6904Z" fill="black"/>
</g>
<defs>
<clipPath id="clip0_192_31">
<rect width="29" height="28" fill="white"/>
</clipPath>
</defs>
</svg>
