<svg width="70" height="31" viewBox="0 0 70 31" fill="none" xmlns="http://www.w3.org/2000/svg">
<path d="M62.2074 14.5833L62.2379 15.6933V17.9733C62.2379 20.1133 62.1973 21.2233 62.116 21.3033C61.852 21.5633 61.3951 21.7633 60.7453 21.9033C60.0954 22.0433 59.5572 22.1133 59.1308 22.1133C58.7246 22.1133 58.5216 22.0833 58.5216 22.0233C58.6637 21.1233 58.7348 19.6433 58.7348 17.5833L58.6434 10.8333C58.6434 9.59328 58.6942 8.92328 58.7957 8.82328C59.0191 8.60328 59.4049 8.41328 59.9532 8.25328C60.5016 8.07328 61.0093 7.98328 61.4763 7.98328C61.9637 7.98328 62.2074 8.03328 62.2074 8.13328C62.1465 8.61328 62.116 9.09328 62.116 9.57328C62.116 10.0533 62.1465 10.2933 62.2074 10.2933L62.2988 10.2333C62.4003 10.0933 62.5526 9.92328 62.7557 9.72328C62.9588 9.50328 63.3853 9.22328 64.0351 8.88328C64.7053 8.52328 65.3348 8.34328 65.9237 8.34328C66.5329 8.34328 67.0406 8.45328 67.4468 8.67328C67.8732 8.87328 68.2185 9.12328 68.4825 9.42328C68.7465 9.72328 68.9699 10.1533 69.1526 10.7133C69.3557 11.2733 69.508 11.7933 69.6096 12.2733C69.7111 12.7533 69.7923 13.3933 69.8533 14.1933C69.9142 15.2933 69.9446 16.6933 69.9446 18.3933L69.8533 21.9033C69.8533 22.0433 69.5182 22.1733 68.848 22.2933C68.1779 22.4333 67.6397 22.5033 67.2336 22.5033L66.2283 22.3533C66.4314 20.5533 66.5329 18.8133 66.5329 17.1333C66.5329 15.4333 66.4213 14.1633 66.1979 13.3233C65.9745 12.4633 65.5277 12.0333 64.8576 12.0333C64.1874 12.0333 63.6391 12.2133 63.2126 12.5733C62.8065 12.9333 62.5425 13.2933 62.4206 13.6533L62.2074 14.1633V14.5833Z" fill="#C53E38"/>
<path d="M53.9911 3.42328C54.5597 3.42328 55.0166 3.60328 55.3619 3.96328C55.7071 4.32328 55.8797 4.79328 55.8797 5.37328C55.8797 5.95328 55.6462 6.45328 55.1791 6.87328C54.7323 7.27328 54.2246 7.47328 53.656 7.47328C53.1077 7.47328 52.661 7.30328 52.3157 6.96328C51.9908 6.60328 51.8283 6.13328 51.8283 5.55328C51.8283 4.97328 52.0517 4.47328 52.4985 4.05328C52.9453 3.63328 53.4428 3.42328 53.9911 3.42328ZM55.5446 10.8933L55.4837 15.7533C55.4837 17.3133 55.5243 18.4633 55.6056 19.2033C55.7071 19.9233 55.9711 20.6033 56.3976 21.2433C56.3976 21.4433 55.9813 21.7633 55.1486 22.2033C54.316 22.6433 53.6053 22.8633 53.0163 22.8633C52.8336 22.8633 52.6508 22.5633 52.468 21.9633C52.2853 21.3633 52.1634 20.7933 52.1025 20.2533C52.0619 19.7133 52.0416 17.8933 52.0416 14.7933C52.0416 11.6933 52.1126 10.0033 52.2548 9.72328C52.7219 9.36328 53.5443 9.18328 54.7222 9.18328C55.1893 9.18328 55.4736 9.24328 55.5751 9.36328L55.5446 10.8933Z" fill="#C53E38"/>
<path d="M42.9274 13.8934L42.9883 21.0034C42.9883 22.5634 42.7751 23.9434 42.3486 25.1434C41.9222 26.3634 41.4043 27.3034 40.7951 27.9634C40.1859 28.6434 39.4852 29.1934 38.6932 29.6134C37.4139 30.3134 36.1243 30.6634 34.8246 30.6634C34.7637 30.6634 34.6419 30.5134 34.4591 30.2134C34.2763 29.9134 34.1037 29.5034 33.9412 28.9834C33.7788 28.4634 33.6975 27.9834 33.6975 27.5434H34.2763C34.6825 27.5434 35.0683 27.5034 35.4338 27.4234C35.8197 27.3634 36.2868 27.1734 36.8351 26.8534C37.3834 26.5334 37.8505 26.1134 38.2363 25.5934C38.6222 25.0734 38.9572 24.3034 39.2415 23.2834C39.5259 22.2634 39.668 21.0734 39.668 19.7134C39.668 19.6334 39.6579 19.5934 39.6375 19.5934L39.5462 19.6834C38.6932 20.9834 37.3631 21.6334 35.5557 21.6334C34.1951 21.6334 33.1086 21.1034 32.2963 20.0434C31.484 18.9834 31.0779 17.7934 31.0779 16.4734C31.0779 14.0734 31.8597 12.0934 33.4234 10.5334C34.9871 8.97336 37.2311 8.19336 40.1554 8.19336C40.8662 8.19336 41.2215 8.24336 41.2215 8.34336C41.2825 8.68336 41.3129 9.05336 41.3129 9.45336L41.2825 9.90336H41.6175C42.2674 9.90336 42.704 9.96336 42.9274 10.0834V13.8934ZM39.6071 11.3734L38.9674 11.2834C37.6677 11.2834 36.632 11.7034 35.8603 12.5434C35.1089 13.3634 34.7332 14.3934 34.7332 15.6334C34.7332 16.2534 34.916 16.7934 35.2815 17.2534C35.6674 17.7134 36.2157 17.9434 36.9265 17.9434C37.6575 17.9434 38.2668 17.6634 38.7542 17.1034C39.2415 16.5434 39.4852 16.0934 39.4852 15.7534C39.4852 13.4734 39.5259 12.0134 39.6071 11.3734Z" fill="#C53E38"/>
<path d="M29.33 15.0933C29.33 16.9933 28.7411 18.6433 27.5633 20.0433C26.4057 21.4233 24.8217 22.1133 22.8113 22.1133C20.8211 22.1133 19.2574 21.5033 18.1202 20.2833C16.983 19.0633 16.4143 17.4833 16.4143 15.5433C16.4143 13.5833 17.115 11.8533 18.5162 10.3533C19.9377 8.8333 21.8466 8.0733 24.243 8.0733C25.2177 8.1133 25.7457 8.1733 25.827 8.2533C25.9082 8.3333 25.9488 8.5233 25.9488 8.8233C25.9488 9.1233 25.9183 9.4533 25.8574 9.8133C26.162 9.8133 26.5479 9.9933 27.015 10.3533C27.5023 10.6933 27.8983 11.0433 28.203 11.4033C28.5076 11.7633 28.7716 12.2733 28.995 12.9333C29.2183 13.5733 29.33 14.2933 29.33 15.0933ZM24.8826 12.9933C24.4156 12.6933 23.9586 12.5433 23.5119 12.5433H23.2682C23.2276 12.4633 23.2073 12.2933 23.2073 12.0333C23.2073 11.7733 23.2377 11.5233 23.2986 11.2833C22.466 11.2833 21.6842 11.6533 20.9531 12.3933C20.2423 13.1333 19.887 14.1633 19.887 15.4833C19.887 17.0433 20.3946 18.1233 21.41 18.7233C21.7959 18.9633 22.3239 19.0833 22.994 19.0833C23.6845 19.0833 24.3242 18.7733 24.9131 18.1533C25.5223 17.5333 25.827 16.6133 25.827 15.3933C25.827 14.1733 25.5122 13.3733 24.8826 12.9933Z" fill="#C53E38"/>
<path d="M5.11692 2.5833L4.93415 14.9433C4.93415 16.4833 4.96461 17.6233 5.02553 18.3633C5.35046 18.4433 5.8683 18.4833 6.57907 18.4833C7.31015 18.4833 7.92953 18.4233 8.43723 18.3033C8.96523 18.1833 9.40184 17.9733 9.74707 17.6733C10.1126 17.3533 10.4071 17.0633 10.6305 16.8033C10.8538 16.5233 11.0468 16.1133 11.2092 15.5733C11.4529 14.8533 11.6966 13.9033 11.9403 12.7233C11.9403 12.7033 12.0825 12.6933 12.3668 12.6933C12.6714 12.6933 13.1385 12.8333 13.768 13.1133C14.4178 13.3733 14.7428 13.5733 14.7428 13.7133C14.7428 15.2533 14.6615 16.9933 14.4991 18.9333C14.3366 21.0933 14.1335 22.1733 13.8898 22.1733C13.6665 22.1733 13.2197 22.0833 12.5495 21.9033C11.8794 21.7433 11.3717 21.5933 11.0265 21.4533C9.19876 21.7533 6.83292 21.9133 3.92892 21.9333L2.40584 21.9633L1.18738 21.8133C1.10615 21.7333 1.06553 20.8533 1.06553 19.1733L1.18738 7.6833C1.18738 5.3433 1.12646 4.1033 1.00461 3.9633C0.903071 3.8033 0.720302 3.4233 0.456302 2.8233C0.192302 2.2033 0.0603027 1.8033 0.0603027 1.6233C0.0603027 1.5433 0.283687 1.4333 0.730456 1.2933C1.84738 0.893298 2.8323 0.693298 3.68523 0.693298C4.53815 0.693298 4.98492 0.723298 5.02553 0.783297C5.08646 0.843297 5.11692 1.4433 5.11692 2.5833Z" fill="#C53E38"/>
</svg>
