<svg width="150" height="30" viewBox="0 0 150 30" fill="none" xmlns="http://www.w3.org/2000/svg">
<path d="M147.264 20.1803L145.845 19.9723C145.845 17.3371 145.741 14.466 145.533 11.3592C145.348 8.25245 145.152 5.81139 144.944 4.03608L144.667 1.3315C144.875 1.08185 145.568 0.915413 146.745 0.832197L147.299 0.790588C148.546 0.790588 149.411 0.984763 149.896 1.37311C149.965 1.42859 150 1.48407 150 1.53955C150 1.56729 149.965 1.74759 149.896 2.08046C149.85 2.38559 149.792 2.76007 149.723 3.2039C149.654 3.61999 149.584 4.07769 149.515 4.57699C149.354 5.74204 149.273 6.57422 149.273 7.07353C149.273 7.57284 149.238 8.73788 149.169 10.5687C148.915 15.8114 148.753 18.9182 148.684 19.8891C148.222 20.0832 147.749 20.1803 147.264 20.1803ZM148.961 23.9251C149.423 24.4522 149.654 25.104 149.654 25.8807C149.654 26.6574 149.423 27.3232 148.961 27.878C148.523 28.405 147.98 28.6685 147.334 28.6685C146.687 28.6685 146.133 28.405 145.671 27.878C145.233 27.3232 145.014 26.6574 145.014 25.8807C145.014 25.104 145.233 24.4522 145.671 23.9251C146.133 23.3703 146.687 23.0929 147.334 23.0929C147.98 23.0929 148.523 23.3703 148.961 23.9251Z" fill="white"/>
<path d="M132.089 12.3578C133.635 12.3578 134.432 12.5382 134.478 12.8988C135.24 18.086 135.852 21.2483 136.313 22.3856H136.452C136.96 21.0818 137.525 18.8072 138.149 15.5617C138.772 12.3162 139.13 10.0139 139.222 8.65466C140.607 8.65466 141.738 8.94592 142.616 9.52844C142.893 9.69488 143.031 9.80583 143.031 9.86131C143.031 11.0818 142.673 13.2316 141.958 16.3107C141.265 19.3897 140.561 22.1914 139.845 24.7157C139.153 27.2122 138.76 28.516 138.668 28.6269C138.576 28.7379 138.172 28.8488 137.456 28.9598C136.74 29.0985 136.082 29.1678 135.482 29.1678C134.882 29.1678 134.489 29.1124 134.305 29.0014C134.097 28.7517 133.716 27.4064 133.162 24.9653C132.608 22.5243 132.227 20.4577 132.019 18.7656H131.915C131.569 20.4577 131.096 22.4549 130.496 24.7573C129.919 27.0597 129.561 28.3079 129.422 28.5021C129.284 28.6685 128.822 28.835 128.037 29.0014C127.252 29.1956 126.629 29.2927 126.167 29.2927C125.705 29.2927 125.44 29.2511 125.371 29.1678C125.186 28.9737 124.493 26.2275 123.293 20.9293C122.093 15.6311 121.492 12.3162 121.492 10.9848C121.492 10.9293 121.608 10.8183 121.839 10.6519C122.093 10.4577 122.52 10.2774 123.12 10.111C123.743 9.91679 124.436 9.8197 125.198 9.8197C126.052 15.8669 126.837 19.8474 127.552 21.7615C127.598 21.9001 127.656 21.9001 127.725 21.7615C128.118 20.8461 128.522 19.4314 128.937 17.5173C129.353 15.6033 129.607 14.0638 129.699 12.8988C129.722 12.7601 129.999 12.6352 130.53 12.5243C131.061 12.4133 131.581 12.3578 132.089 12.3578Z" fill="white"/>
<path d="M119.852 19.8474C119.852 22.4827 119.182 24.7712 117.843 26.7129C116.528 28.6269 114.727 29.5839 112.441 29.5839C110.179 29.5839 108.401 28.7379 107.109 27.0458C105.816 25.3537 105.169 23.1623 105.169 20.4716C105.169 17.7531 105.966 15.3537 107.559 13.2732C109.175 11.1651 111.345 10.111 114.069 10.111C115.177 10.1664 115.777 10.2497 115.87 10.3606C115.962 10.4716 116.008 10.7351 116.008 11.1512C116.008 11.5673 115.973 12.025 115.904 12.5243C116.251 12.5243 116.689 12.7739 117.22 13.2732C117.774 13.7448 118.224 14.2302 118.571 14.7295C118.917 15.2289 119.217 15.9362 119.471 16.8516C119.725 17.7393 119.852 18.7379 119.852 19.8474ZM114.796 16.9348C114.265 16.5187 113.746 16.3107 113.238 16.3107H112.961C112.915 16.1997 112.892 15.9639 112.892 15.6033C112.892 15.2427 112.926 14.896 112.995 14.5631C112.049 14.5631 111.16 15.0763 110.329 16.1026C109.521 17.129 109.117 18.5576 109.117 20.3884C109.117 22.552 109.694 24.0499 110.849 24.8821C111.287 25.215 111.887 25.3814 112.649 25.3814C113.434 25.3814 114.161 24.9515 114.831 24.0915C115.523 23.2316 115.87 21.9556 115.87 20.2635C115.87 18.5714 115.512 17.4619 114.796 16.9348Z" fill="white"/>
<path d="M86.3566 29.7503C85.8949 29.7503 85.4794 29.6671 85.11 29.5007V28.2524C85.11 24.0083 85.2254 17.8502 85.4563 9.77809L85.5948 5.74202C85.2947 5.27046 84.9946 4.53537 84.6945 3.53676C84.4174 2.5104 84.2789 1.88627 84.2789 1.66436C84.2789 1.4147 84.302 1.26214 84.3482 1.20666C84.3944 1.15118 84.9715 1.08183 86.0796 0.998615C87.2108 0.887658 88.3651 0.832179 89.5424 0.832179C90.7429 0.832179 91.4123 0.901527 91.5508 1.04022C95.637 12.025 97.7147 17.6283 97.7839 17.8502C97.8763 18.0721 97.9455 18.1831 97.9917 18.1831L98.1302 17.8918V16.7268C98.1302 14.3689 98.0609 11.4286 97.9224 7.90569C97.807 4.3828 97.68 2.1914 97.5415 1.33148C97.8647 0.970875 98.4534 0.665744 99.3076 0.416091C100.185 0.138697 100.97 0 101.662 0C102.378 0 102.736 0.0693489 102.736 0.208047C102.736 0.762831 102.655 1.4147 102.493 2.16366C102.332 2.91262 102.251 3.30097 102.251 3.32871C102.089 4.57698 102.009 6.53259 102.009 9.19556C102.009 11.8308 102.009 13.7309 102.009 14.896C102.032 16.061 102.043 17.1845 102.043 18.2663C102.066 19.3204 102.089 20.3745 102.112 21.4286C102.136 22.4549 102.147 23.3981 102.147 24.258C102.193 26.0888 102.216 27.3648 102.216 28.086L102.251 28.6685C102.251 28.7517 102.101 28.8627 101.801 29.0014C100.9 29.4452 99.6885 29.6671 98.1648 29.6671L96.8836 29.5007C95.9602 26.3662 94.6097 22.4133 92.8321 17.6422C91.0545 12.871 90.0618 10.3051 89.8541 9.94452C89.6463 9.55617 89.5193 9.362 89.4732 9.362L89.3693 9.65326C89.2769 10.43 89.2308 12.1082 89.2308 14.6879C89.2308 17.2399 89.2769 20.0277 89.3693 23.0513C89.4847 26.0749 89.6117 27.975 89.7502 28.7517C89.1269 29.4175 87.9957 29.7503 86.3566 29.7503Z" fill="white"/>
<path d="M66.4674 22.8849L66.3981 13.4397C66.3981 11.8031 66.4443 10.9293 66.5366 10.8183C66.7906 10.5132 67.2292 10.2497 67.8525 10.0278C68.4758 9.7781 69.0529 9.65327 69.5839 9.65327C70.138 9.65327 70.415 9.72262 70.415 9.86132C70.3457 10.6103 70.3111 11.4702 70.3111 12.4411C70.3111 13.3842 70.3342 13.8558 70.3804 13.8558C70.4265 13.8558 70.4727 13.828 70.5189 13.7726C70.565 13.6893 70.6343 13.5784 70.7266 13.4397C70.8421 13.2732 71.0614 12.9959 71.3846 12.6075C71.7308 12.2192 72.1002 11.8863 72.4927 11.6089C73.4853 10.8322 74.5473 10.4438 75.6785 10.4438C75.8631 10.8045 75.9555 11.3592 75.9555 12.1082C75.9555 13.6893 75.7939 14.8128 75.4707 15.4785L75.3322 15.8114L74.882 15.7282C73.2199 15.7282 71.9155 16.5465 70.969 18.1831C70.5997 18.8488 70.415 19.3481 70.415 19.681V23.3426C70.415 26.6713 70.3804 28.3773 70.3111 28.4605C69.6647 29.2094 68.395 29.5839 66.502 29.5839C66.3173 29.5839 66.225 29.5423 66.225 29.4591C66.3866 28.3773 66.4674 26.1859 66.4674 22.8849Z" fill="white"/>
<path d="M59.7547 15.2704C59.7547 14.466 59.3968 14.0638 58.6812 14.0638C57.7347 14.0638 56.9036 14.6463 56.188 15.8114C55.4723 16.9764 55.1145 18.3772 55.1145 20.0139C55.1145 20.4022 55.1607 20.5964 55.253 20.5964C56.0841 20.5686 57.0421 20 58.1271 18.8904C59.2121 17.7531 59.7547 16.5465 59.7547 15.2704ZM62.7673 28.5021C61.9824 29.1401 60.4472 29.4591 58.1618 29.4591C55.8763 29.4591 54.1218 28.6408 52.8983 27.0042C51.6747 25.3675 51.063 23.19 51.063 20.4716C51.063 17.7254 51.7902 15.3537 53.2446 13.3564C54.722 11.3315 56.7882 10.319 59.443 10.319C60.528 10.319 61.5207 10.6657 62.421 11.3592C63.3444 12.0527 63.8062 13.2732 63.8062 15.0208C63.8062 16.7406 63.1713 18.4466 61.9016 20.1387C60.655 21.8308 58.9467 23.1207 56.7766 24.0083C56.7766 24.3412 57.0537 24.6186 57.6077 24.8405C58.1848 25.0347 58.7504 25.1318 59.3045 25.1318C61.059 25.1318 62.4441 24.7573 63.4599 24.0083C63.4829 23.9806 63.5176 23.9667 63.5638 23.9667C63.6099 23.9667 63.633 24.2302 63.633 24.7573C63.633 26.3661 63.3444 27.6144 62.7673 28.5021Z" fill="white"/>
<path d="M43.6396 10.6519L43.5704 4.49377C43.5704 2.77393 43.605 1.87241 43.6743 1.78919C43.9513 1.45632 44.4015 1.13732 45.0248 0.832186C45.6712 0.499314 46.2829 0.332878 46.8601 0.332878C47.4372 0.332878 47.7258 0.388357 47.7258 0.499314C47.5411 5.10403 47.4487 10 47.4487 15.1872C47.4487 20.3745 47.518 23.4674 47.6565 24.466C47.8181 25.9639 48.199 27.0735 48.7992 27.7947C48.7992 28.0721 48.3144 28.5021 47.3449 29.0846C46.3983 29.6949 45.5904 30 44.9209 30C44.8516 30 44.7477 29.8891 44.6092 29.6671C44.1706 28.9737 43.9051 28.0305 43.8128 26.8377C43.8128 26.7545 43.7897 26.7129 43.7435 26.7129L43.6396 26.7961C42.67 28.4605 41.2272 29.2927 39.3111 29.2927C37.7644 29.2927 36.5409 28.5576 35.6405 27.0874C34.7402 25.6172 34.29 23.9667 34.29 22.1359C34.29 19.0014 35.098 16.3384 36.714 14.147C38.33 11.9279 40.6385 10.7628 43.6396 10.6519ZM43.7089 15.0208C43.7089 14.9653 43.5819 14.9376 43.328 14.9376H43.1895C41.712 14.9376 40.5462 15.5063 39.692 16.6436C38.861 17.7809 38.4454 19.2233 38.4454 20.9709C38.4454 21.9972 38.6416 22.8433 39.0341 23.509C39.4496 24.147 40.0614 24.466 40.8694 24.466C41.7005 24.466 42.3584 24.0361 42.8432 23.1762C43.3511 22.3162 43.605 21.6366 43.605 21.1373C43.605 18.0583 43.6396 16.0194 43.7089 15.0208Z" fill="white"/>
<path d="M23.757 22.8849L23.6877 13.4397C23.6877 11.8031 23.7339 10.9293 23.8262 10.8183C24.0802 10.5132 24.5188 10.2497 25.1421 10.0278C25.7654 9.7781 26.3426 9.65327 26.8735 9.65327C27.4276 9.65327 27.7046 9.72262 27.7046 9.86132C27.6353 10.6103 27.6007 11.4702 27.6007 12.4411C27.6007 13.3842 27.6238 13.8558 27.67 13.8558C27.7161 13.8558 27.7623 13.828 27.8085 13.7726C27.8546 13.6893 27.9239 13.5784 28.0162 13.4397C28.1317 13.2732 28.351 12.9959 28.6742 12.6075C29.0205 12.2192 29.3898 11.8863 29.7823 11.6089C30.775 10.8322 31.8369 10.4438 32.9681 10.4438C33.1528 10.8045 33.2451 11.3592 33.2451 12.1082C33.2451 13.6893 33.0835 14.8128 32.7603 15.4785L32.6218 15.8114L32.1716 15.7282C30.5095 15.7282 29.2051 16.5465 28.2586 18.1831C27.8893 18.8488 27.7046 19.3481 27.7046 19.681V23.3426C27.7046 26.6713 27.67 28.3773 27.6007 28.4605C26.9543 29.2094 25.6846 29.5839 23.7916 29.5839C23.6069 29.5839 23.5146 29.5423 23.5146 29.4591C23.6762 28.3773 23.757 26.1859 23.757 22.8849Z" fill="white"/>
<path d="M10.1114 29.7504C6.67169 29.7504 4.12075 28.5576 2.4586 26.172C0.819531 23.7864 0 20.7906 0 17.1845C0 15.4369 0.173142 13.8003 0.519423 12.2746C0.865705 10.749 1.1889 9.66714 1.48901 9.02914C1.78912 8.39113 2.03152 8.01665 2.2162 7.9057C2.40089 7.767 3.12808 7.69765 4.39778 7.69765H5.05571C5.05571 6.31069 5.27502 5.10403 5.71365 4.07768C6.17536 3.05133 6.76403 2.2885 7.47968 1.78919C8.81864 0.873797 10.0883 0.4161 11.2888 0.4161C17.7065 0.4161 20.9154 5.27047 20.9154 14.9792C20.9154 18.0028 20.4883 20.6935 19.6342 23.0513C19.1494 24.3828 18.5145 25.534 17.7296 26.5049C16.9447 27.448 15.8943 28.2247 14.5785 28.835C13.2857 29.4452 11.7967 29.7504 10.1114 29.7504ZM16.4484 14.6463C16.4484 8.12761 14.8324 4.86825 11.6004 4.86825C10.677 4.86825 9.96137 5.18725 9.45349 5.82525C8.96869 6.46326 8.7263 7.28156 8.7263 8.28018C8.7263 9.25105 8.98024 10.4022 9.48812 11.7337C10.0191 13.0652 10.55 14.1193 11.081 14.896L11.8428 16.061C11.8428 16.3939 11.4158 16.7129 10.5616 17.018C9.70743 17.2954 9.02641 17.4341 8.51853 17.4341C8.4031 17.4341 8.1607 17.1706 7.79133 16.6436C7.44505 16.1165 7.02952 15.3121 6.54472 14.2302C6.08301 13.1207 5.74828 11.9556 5.54051 10.7351C5.19423 11.1512 4.9172 11.9972 4.70943 13.2732C4.50166 14.5492 4.39778 15.7836 4.39778 16.9764C4.39778 19.3065 4.94028 21.3038 6.0253 22.9681C7.11032 24.6047 8.4839 25.423 10.146 25.423C14.3476 25.423 16.4484 21.8308 16.4484 14.6463Z" fill="white"/>
</svg>
