<svg width="110" height="50" viewBox="0 0 110 50" fill="none" xmlns="http://www.w3.org/2000/svg">
<path fill-rule="evenodd" clip-rule="evenodd" d="M93.0769 2.5H16.9231C8.97867 2.5 2.53846 8.84263 2.53846 16.6667V33.3333C2.53846 41.1574 8.97867 47.5 16.9231 47.5H93.0769C101.021 47.5 107.462 41.1574 107.462 33.3333V16.6667C107.462 8.84263 101.021 2.5 93.0769 2.5ZM16.9231 0C7.57672 0 0 7.46192 0 16.6667V33.3333C0 42.5381 7.57672 50 16.9231 50H93.0769C102.423 50 110 42.5381 110 33.3333V16.6667C110 7.46192 102.423 0 93.0769 0H16.9231Z" fill="#C53E38"/>
</svg>
