<svg width="84" height="31" viewBox="0 0 84 31" fill="none" xmlns="http://www.w3.org/2000/svg">
<path d="M75.0619 6.78336L75.0314 8.19336C80.4333 8.19336 83.1342 10.2534 83.1342 14.3734C83.1342 15.4934 82.9006 16.5134 82.4336 17.4334C81.9868 18.3334 81.4283 19.0534 80.7582 19.5934C80.088 20.1134 79.3569 20.5534 78.5649 20.9134C77.2043 21.5334 75.9859 21.8434 74.9096 21.8434V22.2934C74.9096 25.2934 74.9908 27.2934 75.1532 28.2934C74.8892 28.5534 74.4323 28.7534 73.7825 28.8934C73.1326 29.0534 72.6046 29.1334 72.1985 29.1334C71.7923 29.1334 71.5893 29.1034 71.5893 29.0434C71.508 28.4034 71.4674 27.0834 71.4674 25.0834L71.6197 11.1334C71.6197 9.49336 71.5893 8.35336 71.5283 7.71336C71.772 7.47336 72.1782 7.24336 72.7468 7.02336C73.3357 6.80336 73.8434 6.69336 74.2699 6.69336C74.6963 6.69336 74.9603 6.72336 75.0619 6.78336ZM74.9096 17.0134L74.94 18.5134C76.1788 18.5134 77.2652 18.1634 78.1994 17.4634C79.1336 16.7634 79.6006 15.7534 79.6006 14.4334C79.6006 12.2734 78.0674 11.1934 75.0009 11.1934L74.9705 11.5834C74.9705 11.8434 74.9705 12.1834 74.9705 12.6034L74.9096 17.0134Z" fill="#C53E38"/>
<path d="M65.1913 20.1934L65.1609 19.5634L65.1304 19.5034C64.643 20.2434 64.0236 20.8334 63.2723 21.2733C62.5412 21.7134 61.8203 21.9333 61.1095 21.9333C58.9772 21.9333 57.7587 20.3034 57.4541 17.0434C57.4135 16.5233 57.3932 15.1834 57.3932 13.0234C57.3932 10.8633 57.4846 9.58335 57.6673 9.18335C58.1953 8.76335 59.0483 8.55335 60.2261 8.55335C60.6932 8.55335 60.9775 8.60335 61.079 8.70335C61.079 8.72335 61.0689 8.99335 61.0486 9.51335C60.947 11.0334 60.8963 12.2034 60.8963 13.0234C60.8963 13.8434 60.9064 14.4533 60.9267 14.8533C60.947 15.2333 60.9572 15.4833 60.9572 15.6033C60.9775 15.7034 61.008 15.8934 61.0486 16.1734C61.1095 16.4534 61.1907 16.6934 61.2923 16.8934C61.5969 17.4734 62.064 17.7634 62.6935 17.7634C63.3433 17.7634 63.912 17.4534 64.3993 16.8334C64.907 16.1934 65.1507 15.7434 65.1304 15.4834V14.4633C65.1304 10.8033 65.1913 8.83335 65.3132 8.55335C65.4147 8.37335 65.7295 8.18335 66.2575 7.98335C66.8058 7.78335 67.344 7.68335 67.872 7.68335C68.4 7.68335 68.7046 7.72335 68.7858 7.80335L68.7249 9.21335C68.603 12.0733 68.5421 14.2833 68.5421 15.8433C68.5421 17.4033 68.5827 18.3934 68.664 18.8134C68.8061 19.8134 69.0803 20.6134 69.4864 21.2134C69.4864 21.4134 69.0701 21.7334 68.2375 22.1734C67.4049 22.6134 66.6941 22.8334 66.1052 22.8334C65.9427 22.8334 65.76 22.5333 65.5569 21.9333C65.3538 21.3334 65.232 20.7534 65.1913 20.1934Z" fill="#C53E38"/>
<path d="M41.1256 14.5833L41.1561 15.6933V17.9733C41.1561 20.1133 41.1155 21.2233 41.0343 21.3033C40.7703 21.5633 40.3133 21.7633 39.6635 21.9033C39.0136 22.0433 38.4755 22.1133 38.049 22.1133C37.6429 22.1133 37.4398 22.0833 37.4398 22.0233C37.5819 21.1233 37.653 19.6433 37.653 17.5833L37.5616 10.8333C37.5616 9.59334 37.6124 8.92334 37.7139 8.82334C37.9373 8.60334 38.3232 8.41334 38.8715 8.25334C39.4198 8.07334 39.9275 7.98334 40.3946 7.98334C40.8819 7.98334 41.1256 8.03334 41.1256 8.13334C41.0647 8.61334 41.0343 9.09334 41.0343 9.57334C41.0343 10.0533 41.0647 10.2933 41.1256 10.2933L41.217 10.2333C41.3186 10.0933 41.4709 9.92334 41.6739 9.72334C41.877 9.50334 42.3035 9.22334 42.9533 8.88334C43.6235 8.52334 44.253 8.34334 44.8419 8.34334C45.4512 8.34334 45.9589 8.45334 46.365 8.67334C46.7915 8.87334 47.1367 9.12334 47.4007 9.42334C47.6647 9.72334 47.8881 10.1533 48.0709 10.7133C48.2739 11.2733 48.4262 11.7933 48.5278 12.2733C48.6293 12.7533 48.7106 13.3933 48.7715 14.1933C48.8324 15.2933 48.8629 16.6933 48.8629 18.3933L48.7715 21.9033C48.7715 22.0433 48.4364 22.1733 47.7663 22.2933C47.0961 22.4333 46.5579 22.5033 46.1518 22.5033L45.1466 22.3533C45.3496 20.5533 45.4512 18.8133 45.4512 17.1333C45.4512 15.4333 45.3395 14.1633 45.1161 13.3233C44.8927 12.4633 44.4459 12.0333 43.7758 12.0333C43.1056 12.0333 42.5573 12.2133 42.1309 12.5733C41.7247 12.9333 41.4607 13.2933 41.3389 13.6533L41.1256 14.1633V14.5833Z" fill="#C53E38"/>
<path d="M34.6371 13.8933L34.698 21.0033C34.698 22.5633 34.4848 23.9433 34.0583 25.1433C33.6318 26.3633 33.114 27.3033 32.5048 27.9633C31.8955 28.6433 31.1949 29.1933 30.4029 29.6133C29.1235 30.3133 27.834 30.6633 26.5343 30.6633C26.4734 30.6633 26.3515 30.5133 26.1688 30.2133C25.986 29.9133 25.8134 29.5033 25.6509 28.9833C25.4885 28.4633 25.4072 27.9833 25.4072 27.5433H25.986C26.3922 27.5433 26.778 27.5033 27.1435 27.4233C27.5294 27.3633 27.9965 27.1733 28.5448 26.8533C29.0931 26.5333 29.5602 26.1133 29.946 25.5933C30.3318 25.0733 30.6669 24.3033 30.9512 23.2833C31.2355 22.2633 31.3777 21.0733 31.3777 19.7133C31.3777 19.6333 31.3675 19.5933 31.3472 19.5933L31.2558 19.6833C30.4029 20.9833 29.0728 21.6333 27.2654 21.6333C25.9048 21.6333 24.8183 21.1033 24.006 20.0433C23.1937 18.9833 22.7875 17.7933 22.7875 16.4733C22.7875 14.0733 23.5694 12.0933 25.1331 10.5333C26.6968 8.9733 28.9408 8.1933 31.8651 8.1933C32.5758 8.1933 32.9312 8.2433 32.9312 8.3433C32.9922 8.6833 33.0226 9.0533 33.0226 9.4533L32.9922 9.9033H33.3272C33.9771 9.9033 34.4137 9.9633 34.6371 10.0833V13.8933ZM31.3168 11.3733L30.6771 11.2833C29.3774 11.2833 28.3417 11.7033 27.57 12.5433C26.8186 13.3633 26.4429 14.3933 26.4429 15.6333C26.4429 16.2533 26.6257 16.7933 26.9912 17.2533C27.3771 17.7133 27.9254 17.9433 28.6362 17.9433C29.3672 17.9433 29.9765 17.6633 30.4638 17.1033C30.9512 16.5433 31.1949 16.0933 31.1949 15.7533C31.1949 13.4733 31.2355 12.0133 31.3168 11.3733Z" fill="#C53E38"/>
<path d="M18.9577 3.42328C19.5263 3.42328 19.9833 3.60328 20.3285 3.96328C20.6737 4.32328 20.8463 4.79328 20.8463 5.37328C20.8463 5.95328 20.6128 6.45328 20.1457 6.87328C19.699 7.27328 19.1913 7.47328 18.6226 7.47328C18.0743 7.47328 17.6276 7.30328 17.2823 6.96328C16.9574 6.60328 16.795 6.13328 16.795 5.55328C16.795 4.97328 17.0183 4.47328 17.4651 4.05328C17.9119 3.63328 18.4094 3.42328 18.9577 3.42328ZM20.5113 10.8933L20.4503 15.7533C20.4503 17.3133 20.491 18.4633 20.5722 19.2033C20.6737 19.9233 20.9377 20.6033 21.3642 21.2433C21.3642 21.4433 20.9479 21.7633 20.1153 22.2033C19.2826 22.6433 18.5719 22.8633 17.983 22.8633C17.8002 22.8633 17.6174 22.5633 17.4346 21.9633C17.2519 21.3633 17.13 20.7933 17.0691 20.2533C17.0285 19.7133 17.0082 17.8933 17.0082 14.7933C17.0082 11.6933 17.0793 10.0033 17.2214 9.72328C17.6885 9.36328 18.511 9.18328 19.6888 9.18328C20.1559 9.18328 20.4402 9.24328 20.5417 9.36328L20.5113 10.8933Z" fill="#C53E38"/>
<path d="M12.5325 4.20335C12.2076 4.16335 11.8319 4.14335 11.4054 4.14335C10.9993 4.14335 10.4916 4.18335 9.88234 4.26335C9.29342 4.34335 8.67403 4.47335 8.02418 4.65335C7.39465 4.81335 6.8768 5.07335 6.47065 5.43335C6.06449 5.79335 5.86141 6.23335 5.86141 6.75335C5.86141 7.25335 6.16603 7.70335 6.77526 8.10335C7.4048 8.48335 8.15618 8.84335 9.02942 9.18335C9.90265 9.50335 10.7759 9.87335 11.6491 10.2934C12.5426 10.7134 13.294 11.3334 13.9033 12.1534C14.5328 12.9534 14.8476 13.9234 14.8476 15.0634C14.8476 17.0834 13.8626 18.8034 11.8928 20.2234C9.94326 21.6234 7.47588 22.3234 4.49065 22.3234C2.98788 22.3234 1.87095 22.2434 1.13988 22.0834C0.957107 21.9034 0.865723 20.8334 0.865723 18.8734C0.865723 16.8934 0.906338 15.7034 0.987569 15.3034C1.04849 15.1234 1.40388 14.9034 2.05372 14.6434C2.70357 14.3834 3.33311 14.2534 3.94234 14.2534C3.94234 16.6134 4.19618 18.0434 4.70388 18.5434C4.90695 18.7434 5.2928 18.8434 5.86141 18.8434C7.16111 18.8434 8.28818 18.4834 9.24265 17.7634C10.2174 17.0434 10.7048 16.1934 10.7048 15.2134C10.7048 14.5534 10.39 13.9734 9.76049 13.4734C9.13095 12.9734 8.35926 12.5434 7.44541 12.1834C6.55188 11.8034 5.65834 11.4134 4.7648 11.0134C3.87126 10.5934 3.10972 10.0234 2.48018 9.30335C1.85065 8.58335 1.53588 7.73335 1.53588 6.75335C1.53588 5.29335 2.41926 3.96335 4.18603 2.76335C5.97311 1.54335 8.55218 0.93335 11.9233 0.93335C12.7153 0.93335 13.162 0.98335 13.2636 1.08335C13.2839 1.14335 13.294 1.29335 13.294 1.53335C13.294 1.75335 13.223 2.19335 13.0808 2.85335C12.9386 3.51335 12.7559 3.96335 12.5325 4.20335Z" fill="#C53E38"/>
</svg>
