<svg width="700" height="165" viewBox="0 0 700 165" fill="none" xmlns="http://www.w3.org/2000/svg">
<path d="M696.234 139.539L694.28 139.29C694.28 136.134 694.137 132.696 693.851 128.976C693.596 125.255 693.326 122.332 693.04 120.206L692.659 116.967C692.945 116.668 693.898 116.469 695.519 116.369L696.282 116.32C697.998 116.32 699.19 116.552 699.857 117.017C699.952 117.084 700 117.15 700 117.217C700 117.25 699.952 117.466 699.857 117.864C699.793 118.23 699.714 118.678 699.619 119.21C699.523 119.708 699.428 120.256 699.333 120.854C699.11 122.249 698.999 123.245 698.999 123.843C698.999 124.441 698.951 125.836 698.856 128.029C698.506 134.307 698.284 138.027 698.189 139.19C697.553 139.422 696.901 139.539 696.234 139.539ZM698.57 144.023C699.206 144.654 699.523 145.435 699.523 146.365C699.523 147.295 699.206 148.092 698.57 148.757C697.966 149.388 697.219 149.703 696.329 149.703C695.44 149.703 694.677 149.388 694.041 148.757C693.437 148.092 693.135 147.295 693.135 146.365C693.135 145.435 693.437 144.654 694.041 144.023C694.677 143.359 695.44 143.027 696.329 143.027C697.219 143.027 697.966 143.359 698.57 144.023Z" fill="black"/>
<path d="M684.466 133.659C684.466 132.696 683.974 132.214 682.989 132.214C681.686 132.214 680.542 132.912 679.556 134.307C678.571 135.702 678.079 137.38 678.079 139.339C678.079 139.804 678.142 140.037 678.269 140.037C679.413 140.004 680.732 139.323 682.226 137.994C683.72 136.632 684.466 135.187 684.466 133.659ZM688.614 149.504C687.533 150.268 685.42 150.65 682.274 150.65C679.127 150.65 676.712 149.67 675.028 147.71C673.343 145.75 672.501 143.143 672.501 139.887C672.501 136.599 673.502 133.759 675.504 131.367C677.538 128.942 680.383 127.73 684.037 127.73C685.531 127.73 686.898 128.145 688.137 128.975C689.408 129.806 690.044 131.268 690.044 133.36C690.044 135.42 689.17 137.463 687.422 139.489C685.706 141.515 683.354 143.06 680.367 144.123C680.367 144.521 680.748 144.853 681.511 145.119C682.305 145.352 683.084 145.468 683.847 145.468C686.262 145.468 688.169 145.02 689.567 144.123C689.599 144.089 689.647 144.073 689.71 144.073C689.774 144.073 689.806 144.388 689.806 145.02C689.806 146.946 689.408 148.441 688.614 149.504Z" fill="black"/>
<path d="M665.408 130.271L665.646 150.202C665.646 151.497 665.614 152.311 665.551 152.643C664.343 153.573 662.738 154.038 660.736 154.038L659.401 153.789C659.878 150.102 660.116 143.292 660.116 133.36C660.116 130.869 660.1 129.042 660.069 127.879L657.971 127.979C657.812 127.813 657.733 127.082 657.733 125.787C657.733 124.491 657.876 123.694 658.162 123.395C658.734 123.362 659.354 123.329 660.021 123.295L659.926 117.266C659.862 116.735 661.038 115.855 663.453 114.626C665.869 113.396 667.839 112.782 669.364 112.782C669.555 112.782 669.793 113.164 670.079 113.928C670.397 114.659 670.556 115.24 670.556 115.672C670.556 116.07 670.54 116.32 670.508 116.419C670.413 116.419 670 116.602 669.269 116.967C668.538 117.3 667.775 117.748 666.981 118.313C666.186 118.844 665.773 119.309 665.741 119.708C665.614 120.571 665.519 121.751 665.455 123.245H665.646C668.22 123.245 669.507 123.295 669.507 123.395C669.507 124.956 669.205 126.252 668.602 127.281C668.379 127.68 668.188 127.879 668.03 127.879C667.013 127.813 666.139 127.78 665.408 127.78V130.271Z" fill="black"/>
<path d="M652.073 119.758C652.963 119.758 653.678 120.057 654.218 120.655C654.758 121.252 655.028 122.033 655.028 122.996C655.028 123.96 654.663 124.79 653.932 125.488C653.233 126.152 652.438 126.484 651.548 126.484C650.69 126.484 649.991 126.202 649.451 125.637C648.943 125.039 648.688 124.259 648.688 123.295C648.688 122.332 649.038 121.502 649.737 120.804C650.436 120.106 651.215 119.758 652.073 119.758ZM654.504 132.164L654.409 140.236C654.409 142.827 654.472 144.737 654.599 145.966C654.758 147.162 655.171 148.292 655.839 149.355C655.839 149.687 655.187 150.218 653.884 150.949C652.581 151.68 651.469 152.045 650.547 152.045C650.261 152.045 649.975 151.547 649.689 150.55C649.403 149.554 649.213 148.607 649.117 147.71C649.054 146.813 649.022 143.791 649.022 138.642C649.022 133.493 649.133 130.686 649.356 130.221C650.087 129.623 651.374 129.324 653.217 129.324C653.948 129.324 654.393 129.424 654.552 129.623L654.504 132.164Z" fill="black"/>
<path d="M630.288 118.362L630.002 138.891C630.002 141.449 630.05 143.342 630.145 144.571C630.653 144.704 631.464 144.77 632.576 144.77C633.72 144.77 634.689 144.671 635.484 144.471C636.31 144.272 636.994 143.923 637.534 143.425C638.106 142.894 638.567 142.412 638.916 141.98C639.266 141.515 639.568 140.834 639.822 139.937C640.203 138.741 640.585 137.164 640.966 135.204C640.966 135.171 641.189 135.154 641.633 135.154C642.11 135.154 642.841 135.386 643.826 135.852C644.843 136.283 645.352 136.616 645.352 136.848C645.352 139.406 645.225 142.296 644.97 145.518C644.716 149.105 644.398 150.899 644.017 150.899C643.667 150.899 642.968 150.75 641.92 150.451C640.871 150.185 640.076 149.936 639.536 149.703C636.676 150.202 632.973 150.467 628.429 150.5L626.045 150.55L624.138 150.301C624.011 150.168 623.948 148.707 623.948 145.916L624.138 126.833C624.138 122.947 624.043 120.887 623.852 120.654C623.694 120.389 623.408 119.758 622.994 118.761C622.581 117.731 622.375 117.067 622.375 116.768C622.375 116.635 622.724 116.452 623.423 116.22C625.171 115.556 626.713 115.223 628.047 115.223C629.382 115.223 630.081 115.273 630.145 115.373C630.24 115.473 630.288 116.469 630.288 118.362Z" fill="black"/>
<path d="M609.711 143.774C609.711 145.568 608.901 147.179 607.28 148.607C605.691 150.002 603.959 150.999 602.084 151.597C600.241 152.228 598.62 152.543 597.222 152.543C597.063 152.543 596.84 152.344 596.554 151.945C595.76 150.849 595.363 149.57 595.363 148.109V147.76C597.841 147.76 599.732 147.312 601.035 146.415C602.338 145.518 602.99 144.588 602.99 143.624C602.99 142.993 602.593 142.329 601.798 141.631C601.004 140.934 600.13 140.319 599.176 139.788C598.223 139.256 597.349 138.559 596.554 137.695C595.76 136.798 595.363 135.868 595.363 134.905C595.363 132.879 596.57 131.018 598.986 129.324C601.401 127.63 603.975 126.783 606.708 126.783C607.026 126.783 607.439 127.248 607.948 128.178C608.456 129.075 608.726 130.005 608.758 130.969C608.122 130.969 607.169 131.168 605.898 131.566C603.387 132.397 602.132 133.427 602.132 134.656C602.132 135.519 603.371 136.699 605.85 138.193C606.804 138.758 607.677 139.539 608.472 140.535C609.267 141.532 609.68 142.611 609.711 143.774Z" fill="black"/>
<path d="M586.722 147.611L586.674 146.564L586.626 146.465C585.863 147.694 584.894 148.674 583.718 149.404C582.574 150.135 581.446 150.5 580.334 150.5C576.997 150.5 575.09 147.793 574.613 142.379C574.55 141.515 574.518 139.29 574.518 135.702C574.518 132.115 574.661 129.989 574.947 129.324C575.773 128.627 577.108 128.278 578.951 128.278C579.682 128.278 580.127 128.361 580.286 128.527C580.286 128.56 580.27 129.009 580.238 129.872C580.079 132.397 580 134.34 580 135.702C580 137.064 580.016 138.077 580.048 138.741C580.08 139.373 580.095 139.788 580.095 139.987C580.127 140.153 580.175 140.469 580.238 140.934C580.334 141.399 580.461 141.797 580.62 142.13C581.096 143.093 581.827 143.575 582.813 143.575C583.83 143.575 584.719 143.06 585.482 142.03C586.277 140.967 586.658 140.22 586.626 139.788V138.094C586.626 132.015 586.722 128.743 586.912 128.278C587.071 127.979 587.564 127.663 588.39 127.331C589.248 126.999 590.09 126.833 590.917 126.833C591.743 126.833 592.22 126.899 592.347 127.032L592.251 129.374C592.061 134.124 591.965 137.795 591.965 140.386C591.965 142.977 592.029 144.621 592.156 145.319C592.378 146.979 592.808 148.308 593.443 149.305C593.443 149.637 592.792 150.168 591.489 150.899C590.186 151.63 589.073 151.995 588.152 151.995C587.897 151.995 587.611 151.497 587.294 150.5C586.976 149.504 586.785 148.541 586.722 147.611Z" fill="black"/>
<path d="M558.548 125.338L558.5 127.68C566.954 127.68 571.181 131.101 571.181 137.944C571.181 139.804 570.815 141.499 570.084 143.027C569.385 144.521 568.511 145.717 567.462 146.614C566.414 147.478 565.27 148.208 564.03 148.806C561.901 149.836 559.994 150.351 558.31 150.351V151.098C558.31 156.081 558.437 159.403 558.691 161.064C558.278 161.496 557.563 161.828 556.546 162.06C555.529 162.326 554.703 162.459 554.067 162.459C553.431 162.459 553.114 162.409 553.114 162.309C552.986 161.246 552.923 159.054 552.923 155.732L553.161 132.563C553.161 129.839 553.114 127.946 553.018 126.883C553.4 126.484 554.035 126.102 554.925 125.737C555.847 125.371 556.641 125.189 557.309 125.189C557.976 125.189 558.389 125.239 558.548 125.338ZM558.31 142.329L558.357 144.82C560.296 144.82 561.996 144.239 563.458 143.076C564.92 141.914 565.651 140.236 565.651 138.044C565.651 134.456 563.252 132.663 558.453 132.663L558.405 133.31C558.405 133.742 558.405 134.307 558.405 135.005L558.31 142.329Z" fill="black"/>
<path d="M521.606 143.325L521.463 131.616C521.463 129.49 521.542 128.344 521.701 128.178C522.083 127.813 522.671 127.481 523.465 127.182C524.26 126.85 525.022 126.683 525.753 126.683C526.484 126.683 526.85 126.75 526.85 126.883C526.723 128.344 526.659 129.457 526.659 130.221C526.659 130.985 526.691 131.367 526.754 131.367C526.818 131.367 526.913 131.301 527.04 131.168C527.168 131.002 527.39 130.769 527.708 130.47C528.057 130.138 528.677 129.706 529.567 129.175C530.489 128.61 531.331 128.328 532.094 128.328C534.159 128.328 535.716 129.291 536.765 131.218C538.577 128.56 540.579 127.232 542.772 127.232C544.742 127.232 546.156 128.112 547.014 129.872C547.904 131.832 548.429 133.792 548.587 135.752C548.778 138.609 548.873 141.565 548.873 144.621L548.683 150.451C548.683 150.683 548.158 150.899 547.11 151.098C546.061 151.331 545.219 151.447 544.583 151.447L543.058 151.198C543.407 147.909 543.582 145.252 543.582 143.226C543.582 141.2 543.55 139.755 543.487 138.891C543.455 137.994 543.344 137.114 543.153 136.25C542.962 135.353 542.66 134.722 542.247 134.357C541.866 133.958 541.373 133.759 540.77 133.759C540.166 133.759 539.625 133.942 539.149 134.307C538.672 134.639 538.322 134.971 538.1 135.303C537.909 135.636 537.814 135.852 537.814 135.951C537.909 137.014 537.957 139.472 537.957 143.325L537.766 147.262C537.766 147.527 537.258 147.76 536.241 147.959C535.224 148.159 534.398 148.258 533.762 148.258L532.237 148.009C532.523 145.319 532.666 142.811 532.666 140.485C532.666 138.127 532.538 136.483 532.284 135.553C532.062 134.589 531.442 134.108 530.425 134.108C529.408 134.108 528.55 134.639 527.851 135.702C527.152 136.765 526.802 137.579 526.802 138.144V139.19L526.85 144.471C526.85 147.727 526.786 149.438 526.659 149.604C525.865 150.401 524.196 150.799 521.654 150.799C521.399 150.799 521.272 150.75 521.272 150.65C521.495 149.222 521.606 146.78 521.606 143.325Z" fill="black"/>
<path d="M516.969 138.393C516.969 142.545 517.017 144.97 517.112 145.667C517.367 147.494 517.907 148.806 518.733 149.604C518.733 149.969 518.098 150.517 516.826 151.248C515.587 151.979 514.459 152.344 513.442 152.344C513.156 152.344 512.854 151.896 512.536 150.999C512.218 150.135 512.028 149.487 511.964 149.056C511.932 148.624 511.9 148.408 511.869 148.408L511.726 148.507C510.041 149.903 508.071 150.6 505.814 150.6C503.558 150.6 501.81 150.035 500.571 148.906C499.363 147.743 498.759 146.232 498.759 144.372C498.759 142.512 499.141 140.95 499.903 139.688C500.698 138.393 501.619 137.413 502.668 136.748C503.717 136.084 504.877 135.553 506.148 135.154C508.087 134.49 509.612 134.157 510.725 134.157L510.82 134.108C510.82 132.48 508.849 131.666 504.909 131.666C503.351 131.666 502.192 131.733 501.429 131.865H501.381C501.381 131.201 501.572 130.371 501.953 129.374C502.366 128.378 502.7 127.73 502.954 127.431C503.24 127.132 504.384 126.982 506.387 126.982C510.009 126.982 512.679 127.713 514.395 129.175C516.111 130.603 516.969 132.829 516.969 135.852V138.393ZM511.678 141.582V139.688C511.678 138.957 511.662 138.592 511.63 138.592C509.501 138.592 507.658 139.173 506.1 140.336C505.115 141.067 504.623 141.98 504.623 143.076C504.623 143.774 504.861 144.355 505.338 144.82C505.814 145.285 506.53 145.518 507.483 145.518C508.468 145.518 509.406 145.219 510.295 144.621C511.217 144.023 511.678 143.01 511.678 141.582Z" fill="black"/>
<path d="M484.763 151.049C480.123 151.049 476.611 149.653 474.228 146.863C471.844 144.073 470.652 140.469 470.652 136.051C470.652 132.297 471.447 128.809 473.036 125.587C473.958 123.694 475.117 122.033 476.516 120.605C477.914 119.176 479.805 117.997 482.189 117.067C484.572 116.137 487.273 115.672 490.293 115.672C491.31 115.672 492.215 115.772 493.01 115.971C493.804 116.17 494.202 116.303 494.202 116.369C494.202 117.964 494.09 119.791 493.868 121.85C493.677 123.877 493.566 124.906 493.534 124.94C493.375 125.106 492.708 125.371 491.532 125.737C490.388 126.102 489.53 126.285 488.958 126.285V125.986C488.958 124.491 488.751 123.445 488.338 122.847C487.925 122.249 487.21 121.95 486.193 121.95C483.937 121.95 481.839 123.196 479.9 125.687C477.962 128.145 476.993 131.533 476.993 135.852C476.993 138.144 477.533 140.203 478.613 142.03C479.185 142.993 480.012 143.774 481.092 144.372C482.204 144.97 483.507 145.269 485.001 145.269C487.989 145.269 490.896 143.824 493.725 140.934C493.852 140.934 494.106 141.15 494.488 141.582C494.901 141.98 495.298 142.528 495.679 143.226C496.474 144.555 496.871 145.368 496.871 145.667C496.871 145.966 496.378 146.531 495.393 147.361C494.408 148.159 492.914 148.972 490.912 149.803C488.91 150.633 486.86 151.049 484.763 151.049Z" fill="black"/>
<path d="M446.371 142.777L446.275 131.467C446.275 129.507 446.339 128.461 446.466 128.328C446.815 127.962 447.419 127.647 448.277 127.381C449.135 127.082 449.93 126.933 450.661 126.933C451.424 126.933 451.805 127.016 451.805 127.182C451.71 128.079 451.662 129.108 451.662 130.271C451.662 131.4 451.694 131.965 451.757 131.965C451.821 131.965 451.884 131.932 451.948 131.865C452.012 131.766 452.107 131.633 452.234 131.467C452.393 131.268 452.695 130.935 453.14 130.47C453.616 130.005 454.125 129.607 454.665 129.274C456.032 128.344 457.494 127.879 459.051 127.879C459.305 128.311 459.432 128.975 459.432 129.872C459.432 131.766 459.21 133.111 458.765 133.908L458.574 134.307L457.954 134.207C455.666 134.207 453.871 135.187 452.568 137.147C452.059 137.944 451.805 138.542 451.805 138.941V143.325C451.805 147.312 451.757 149.354 451.662 149.454C450.772 150.351 449.024 150.799 446.418 150.799C446.164 150.799 446.037 150.75 446.037 150.65C446.259 149.354 446.371 146.73 446.371 142.777Z" fill="black"/>
<path d="M436.215 147.611L436.168 146.564L436.12 146.465C435.357 147.694 434.388 148.674 433.212 149.404C432.068 150.135 430.94 150.5 429.827 150.5C426.491 150.5 424.584 147.793 424.107 142.379C424.043 141.515 424.012 139.29 424.012 135.702C424.012 132.115 424.155 129.989 424.441 129.324C425.267 128.627 426.602 128.278 428.445 128.278C429.176 128.278 429.621 128.361 429.78 128.527C429.78 128.56 429.764 129.009 429.732 129.872C429.573 132.397 429.494 134.34 429.494 135.702C429.494 137.064 429.51 138.077 429.541 138.741C429.573 139.373 429.589 139.788 429.589 139.987C429.621 140.153 429.669 140.469 429.732 140.934C429.827 141.399 429.955 141.797 430.113 142.13C430.59 143.093 431.321 143.575 432.306 143.575C433.323 143.575 434.213 143.06 434.976 142.03C435.77 140.967 436.152 140.22 436.12 139.788V138.094C436.12 132.015 436.215 128.743 436.406 128.278C436.565 127.979 437.057 127.663 437.884 127.331C438.742 126.999 439.584 126.833 440.41 126.833C441.237 126.833 441.713 126.899 441.84 127.032L441.745 129.374C441.554 134.124 441.459 137.795 441.459 140.386C441.459 142.977 441.523 144.621 441.65 145.319C441.872 146.979 442.301 148.308 442.937 149.305C442.937 149.637 442.285 150.168 440.982 150.899C439.679 151.63 438.567 151.995 437.645 151.995C437.391 151.995 437.105 151.497 436.787 150.5C436.47 149.504 436.279 148.541 436.215 147.611Z" fill="black"/>
<path d="M420.657 139.14C420.657 142.296 419.735 145.036 417.892 147.361C416.08 149.653 413.602 150.799 410.455 150.799C407.341 150.799 404.894 149.786 403.114 147.76C401.334 145.734 400.445 143.11 400.445 139.887C400.445 136.632 401.541 133.759 403.734 131.268C405.958 128.743 408.946 127.481 412.696 127.481C414.221 127.547 415.048 127.647 415.175 127.78C415.302 127.913 415.365 128.228 415.365 128.726C415.365 129.225 415.318 129.773 415.222 130.371C415.699 130.371 416.303 130.67 417.034 131.268C417.797 131.832 418.416 132.414 418.893 133.011C419.37 133.609 419.783 134.456 420.132 135.553C420.482 136.616 420.657 137.811 420.657 139.14ZM413.697 135.652C412.966 135.154 412.251 134.905 411.552 134.905H411.17C411.107 134.772 411.075 134.49 411.075 134.058C411.075 133.626 411.123 133.211 411.218 132.812C409.915 132.812 408.692 133.427 407.547 134.656C406.435 135.885 405.879 137.595 405.879 139.788C405.879 142.379 406.674 144.173 408.263 145.169C408.866 145.568 409.693 145.767 410.741 145.767C411.822 145.767 412.823 145.252 413.745 144.222C414.698 143.193 415.175 141.665 415.175 139.638C415.175 137.612 414.682 136.283 413.697 135.652Z" fill="black"/>
<path d="M380.851 150.999L380.994 137.297V136.649C380.104 135.353 378.515 132.58 376.227 128.328C373.97 124.043 372.747 121.767 372.556 121.502C371.825 120.738 370.824 120.356 369.553 120.356C369.521 120.289 369.505 120.106 369.505 119.807C369.505 119.508 369.601 119.043 369.791 118.412C370.014 117.748 370.157 117.383 370.22 117.316C370.316 117.216 370.618 117.117 371.126 117.017C372.493 116.751 373.875 116.619 375.274 116.619C376.672 116.619 377.403 116.652 377.466 116.718C377.562 116.785 378.007 117.698 378.801 119.459C381.28 124.973 383.107 128.66 384.283 130.52H384.379C384.569 129.789 385.92 127.149 388.431 122.598C390.973 118.047 392.451 115.772 392.864 115.772C393.817 115.772 394.771 115.904 395.724 116.17C396.678 116.436 397.424 116.735 397.965 117.067C398.505 117.366 398.759 117.615 398.727 117.814C397.043 119.774 394.802 122.93 392.006 127.281C389.241 131.6 387.604 134.722 387.096 136.649C387.032 137.313 387 139.456 387 143.076C387 146.697 387.128 149.072 387.382 150.202C387.382 150.6 386.873 150.899 385.856 151.098C384.839 151.298 383.838 151.397 382.853 151.397C381.9 151.397 381.232 151.264 380.851 150.999Z" fill="black"/>
<path d="M357.721 137.147L357.816 148.956C357.816 151.547 357.483 153.839 356.815 155.832C356.148 157.858 355.338 159.419 354.384 160.516C353.431 161.645 352.334 162.559 351.095 163.256C349.093 164.419 347.075 165 345.041 165C344.945 165 344.755 164.751 344.469 164.253C344.183 163.754 343.913 163.073 343.658 162.21C343.404 161.346 343.277 160.549 343.277 159.818H344.183C344.818 159.818 345.422 159.752 345.994 159.619C346.598 159.519 347.329 159.204 348.187 158.672C349.045 158.141 349.776 157.443 350.38 156.579C350.984 155.716 351.508 154.437 351.953 152.743C352.398 151.049 352.62 149.072 352.62 146.813C352.62 146.681 352.604 146.614 352.573 146.614L352.43 146.764C351.095 148.923 349.013 150.002 346.185 150.002C344.056 150.002 342.355 149.122 341.084 147.361C339.813 145.601 339.177 143.624 339.177 141.432C339.177 137.446 340.401 134.157 342.848 131.567C345.295 128.976 348.807 127.68 353.383 127.68C354.495 127.68 355.052 127.763 355.052 127.929C355.147 128.494 355.195 129.108 355.195 129.773L355.147 130.52H355.671C356.688 130.52 357.372 130.62 357.721 130.819V137.147ZM352.525 132.962L351.524 132.812C349.49 132.812 347.869 133.51 346.662 134.905C345.486 136.267 344.898 137.977 344.898 140.037C344.898 141.067 345.184 141.964 345.756 142.728C346.36 143.492 347.218 143.874 348.33 143.874C349.474 143.874 350.428 143.409 351.19 142.478C351.953 141.548 352.334 140.801 352.334 140.236C352.334 136.449 352.398 134.025 352.525 132.962Z" fill="black"/>
<path d="M323.882 138.293L323.93 140.137V143.923C323.93 147.478 323.867 149.321 323.739 149.454C323.326 149.886 322.611 150.218 321.594 150.451C320.577 150.683 319.735 150.799 319.068 150.799C318.432 150.799 318.114 150.75 318.114 150.65C318.337 149.155 318.448 146.697 318.448 143.276L318.305 132.065C318.305 130.005 318.385 128.892 318.543 128.726C318.893 128.361 319.497 128.045 320.355 127.78C321.213 127.481 322.007 127.331 322.738 127.331C323.501 127.331 323.882 127.414 323.882 127.58C323.787 128.378 323.739 129.175 323.739 129.972C323.739 130.769 323.787 131.168 323.882 131.168L324.025 131.068C324.184 130.836 324.423 130.553 324.741 130.221C325.058 129.856 325.726 129.391 326.743 128.826C327.791 128.228 328.777 127.929 329.698 127.929C330.652 127.929 331.446 128.112 332.082 128.477C332.749 128.809 333.289 129.225 333.703 129.723C334.116 130.221 334.465 130.935 334.751 131.865C335.069 132.796 335.308 133.659 335.466 134.456C335.625 135.254 335.752 136.317 335.848 137.645C335.943 139.472 335.991 141.798 335.991 144.621L335.848 150.451C335.848 150.683 335.323 150.899 334.275 151.098C333.226 151.331 332.384 151.447 331.748 151.447L330.175 151.198C330.493 148.209 330.652 145.319 330.652 142.528C330.652 139.705 330.477 137.595 330.127 136.2C329.778 134.772 329.079 134.058 328.03 134.058C326.981 134.058 326.123 134.357 325.456 134.955C324.82 135.553 324.407 136.151 324.216 136.748L323.882 137.595V138.293Z" fill="black"/>
<path d="M311.025 119.758C311.914 119.758 312.629 120.057 313.17 120.655C313.71 121.252 313.98 122.033 313.98 122.996C313.98 123.96 313.615 124.79 312.884 125.488C312.185 126.152 311.39 126.484 310.5 126.484C309.642 126.484 308.943 126.202 308.403 125.637C307.894 125.039 307.64 124.259 307.64 123.295C307.64 122.332 307.99 121.502 308.689 120.804C309.388 120.106 310.166 119.758 311.025 119.758ZM313.456 132.164L313.36 140.236C313.36 142.827 313.424 144.737 313.551 145.966C313.71 147.162 314.123 148.292 314.79 149.355C314.79 149.687 314.139 150.218 312.836 150.949C311.533 151.68 310.421 152.045 309.499 152.045C309.213 152.045 308.927 151.547 308.641 150.55C308.355 149.554 308.164 148.607 308.069 147.71C308.005 146.813 307.974 143.791 307.974 138.642C307.974 133.493 308.085 130.686 308.307 130.221C309.038 129.623 310.325 129.324 312.169 129.324C312.9 129.324 313.344 129.424 313.503 129.623L313.456 132.164Z" fill="black"/>
<path d="M297.864 142.429L298.054 124.391C298.054 121.767 298.023 119.99 297.959 119.06C297.896 118.13 297.864 117.632 297.864 117.565C297.864 117.233 298.388 116.851 299.437 116.419C300.517 115.987 301.471 115.772 302.297 115.772C303.123 115.772 303.537 115.838 303.537 115.971C303.378 117.2 303.298 121.518 303.298 128.926L303.203 141.133C303.203 143.425 303.235 144.837 303.298 145.368C303.457 146.83 303.918 148.159 304.681 149.354C304.681 149.687 304.029 150.218 302.726 150.949C301.423 151.68 300.311 152.045 299.389 152.045C299.135 152.045 298.849 151.547 298.531 150.55C298.213 149.554 298.023 148.69 297.959 147.959C297.896 147.229 297.864 145.385 297.864 142.429Z" fill="black"/>
<path d="M288.718 133.659C288.718 132.696 288.226 132.214 287.24 132.214C285.937 132.214 284.793 132.912 283.808 134.307C282.823 135.702 282.33 137.38 282.33 139.339C282.33 139.804 282.394 140.037 282.521 140.037C283.665 140.004 284.984 139.323 286.478 137.994C287.971 136.632 288.718 135.187 288.718 133.659ZM292.866 149.504C291.785 150.268 289.672 150.65 286.525 150.65C283.379 150.65 280.964 149.67 279.279 147.71C277.595 145.75 276.753 143.143 276.753 139.887C276.753 136.599 277.754 133.759 279.756 131.367C281.79 128.942 284.634 127.73 288.289 127.73C289.783 127.73 291.149 128.145 292.389 128.975C293.66 129.806 294.296 131.268 294.296 133.36C294.296 135.42 293.422 137.463 291.674 139.489C289.958 141.515 287.606 143.06 284.619 144.123C284.619 144.521 285 144.853 285.763 145.119C286.557 145.352 287.336 145.468 288.098 145.468C290.514 145.468 292.421 145.02 293.819 144.123C293.851 144.089 293.898 144.073 293.962 144.073C294.025 144.073 294.057 144.388 294.057 145.02C294.057 146.946 293.66 148.441 292.866 149.504Z" fill="black"/>
<path d="M267.646 147.611L267.599 146.564L267.551 146.465C266.788 147.694 265.819 148.674 264.643 149.404C263.499 150.135 262.371 150.5 261.259 150.5C257.922 150.5 256.015 147.793 255.538 142.379C255.475 141.515 255.443 139.29 255.443 135.702C255.443 132.115 255.586 129.989 255.872 129.324C256.698 128.627 258.033 128.278 259.876 128.278C260.607 128.278 261.052 128.361 261.211 128.527C261.211 128.56 261.195 129.009 261.163 129.872C261.004 132.397 260.925 134.34 260.925 135.702C260.925 137.064 260.941 138.077 260.973 138.741C261.004 139.373 261.02 139.788 261.02 139.987C261.052 140.153 261.1 140.469 261.163 140.934C261.259 141.399 261.386 141.797 261.545 142.13C262.021 143.093 262.752 143.575 263.737 143.575C264.754 143.575 265.644 143.06 266.407 142.03C267.202 140.967 267.583 140.22 267.551 139.788V138.094C267.551 132.015 267.646 128.743 267.837 128.278C267.996 127.979 268.489 127.663 269.315 127.331C270.173 126.999 271.015 126.833 271.841 126.833C272.668 126.833 273.144 126.899 273.272 127.032L273.176 129.374C272.986 134.124 272.89 137.795 272.89 140.386C272.89 142.977 272.954 144.621 273.081 145.319C273.303 146.979 273.732 148.308 274.368 149.305C274.368 149.637 273.716 150.168 272.413 150.899C271.11 151.63 269.998 151.995 269.077 151.995C268.822 151.995 268.536 151.497 268.218 150.5C267.901 149.504 267.71 148.541 267.646 147.611Z" fill="black"/>
<path d="M238.263 151.148L236.785 150.999C236.722 150.667 236.69 148.408 236.69 144.222C236.69 140.004 236.706 137.047 236.738 135.353C236.198 134.822 235.657 134.008 235.117 132.912C234.609 131.782 234.354 130.819 234.354 130.022C234.354 129.989 235.181 129.939 236.833 129.872C236.865 128.477 236.881 126.866 236.881 125.039C236.881 123.212 236.865 122.282 236.833 122.249C236.484 121.884 236.023 121.02 235.451 119.658C234.91 118.263 234.64 117.366 234.64 116.967C234.99 116.602 240.504 116.419 251.182 116.419C253.851 116.419 255.186 116.486 255.186 116.619C255.186 117.316 255.027 118.08 254.71 118.911C254.424 119.741 254.106 120.405 253.756 120.904C253.438 121.369 253.232 121.585 253.136 121.551C253.041 121.518 252.469 121.502 251.42 121.502C250.372 121.502 248.751 121.585 246.558 121.751C244.365 121.884 243.173 122.05 242.983 122.249C242.792 122.415 242.697 124.209 242.697 127.63L242.744 129.723C245.732 129.656 248.02 129.623 249.609 129.623C251.198 129.623 251.992 129.673 251.992 129.773C251.992 131.068 251.611 132.43 250.848 133.859C250.594 134.357 250.435 134.606 250.372 134.606H249.895C248.878 134.606 247.464 134.689 245.652 134.855C243.841 135.021 242.887 135.154 242.792 135.254C242.697 135.353 242.649 137.429 242.649 141.482C242.649 145.534 242.855 148.292 243.269 149.753C243.269 150.185 242.649 150.517 241.409 150.75C240.202 151.015 239.153 151.148 238.263 151.148Z" fill="black"/>
<path d="M220.448 129.075C220.988 129.64 221.258 130.321 221.258 131.118C221.258 131.915 220.956 132.629 220.352 133.261C219.78 133.859 219.113 134.157 218.35 134.157C217.587 134.157 216.952 133.892 216.443 133.36C215.935 132.796 215.681 132.098 215.681 131.268C215.681 130.437 215.951 129.723 216.491 129.125C217.063 128.527 217.73 128.228 218.493 128.228C219.256 128.228 219.907 128.51 220.448 129.075ZM220.448 144.721C220.988 145.285 221.258 145.966 221.258 146.764C221.258 147.561 220.956 148.275 220.352 148.906C219.78 149.504 219.113 149.803 218.35 149.803C217.587 149.803 216.952 149.537 216.443 149.006C215.935 148.441 215.681 147.743 215.681 146.913C215.681 146.049 215.951 145.335 216.491 144.77C217.063 144.173 217.73 143.874 218.493 143.874C219.256 143.874 219.907 144.156 220.448 144.721Z" fill="black"/>
<path d="M212.799 143.774C212.799 145.568 211.989 147.179 210.368 148.607C208.779 150.002 207.047 150.999 205.172 151.597C203.329 152.228 201.708 152.543 200.31 152.543C200.151 152.543 199.928 152.344 199.642 151.945C198.848 150.849 198.451 149.57 198.451 148.109V147.76C200.929 147.76 202.82 147.312 204.123 146.415C205.426 145.518 206.078 144.588 206.078 143.624C206.078 142.993 205.681 142.329 204.886 141.631C204.092 140.934 203.218 140.319 202.264 139.788C201.311 139.256 200.437 138.559 199.642 137.695C198.848 136.798 198.451 135.868 198.451 134.905C198.451 132.879 199.658 131.018 202.074 129.324C204.489 127.63 207.063 126.783 209.796 126.783C210.114 126.783 210.527 127.248 211.036 128.178C211.544 129.075 211.814 130.005 211.846 130.969C211.21 130.969 210.257 131.168 208.986 131.566C206.475 132.397 205.22 133.427 205.22 134.656C205.22 135.519 206.459 136.699 208.938 138.193C209.891 138.758 210.765 139.539 211.56 140.535C212.354 141.532 212.768 142.611 212.799 143.774Z" fill="black"/>
<path d="M194.471 116.868C194.408 117.632 194.328 119.724 194.233 123.146C196.617 123.146 197.808 123.196 197.808 123.295C197.808 124.425 197.65 125.438 197.332 126.335C197.014 127.198 196.712 127.63 196.426 127.63H194.185C194.122 132.546 194.09 136.549 194.09 139.638C194.09 142.694 194.138 144.737 194.233 145.767C194.424 147.494 195.075 148.906 196.188 150.002C196.188 150.368 195.568 150.899 194.328 151.597C193.121 152.294 191.977 152.643 190.896 152.643C190.801 152.643 190.61 152.477 190.324 152.145C190.07 151.813 189.784 151.264 189.466 150.5C189.18 149.736 188.989 148.989 188.894 148.258C188.83 147.528 188.799 144.92 188.799 140.436C188.799 135.951 188.846 131.716 188.942 127.73L186.272 127.78C186.113 127.614 186.034 126.899 186.034 125.637C186.034 124.342 186.177 123.561 186.463 123.295C187.162 123.262 188.004 123.229 188.989 123.196C188.989 121.269 188.942 120.023 188.846 119.459C188.751 118.894 188.703 118.562 188.703 118.462C188.703 118.13 189.244 117.748 190.324 117.316C191.436 116.884 192.406 116.668 193.232 116.668C194.058 116.668 194.471 116.735 194.471 116.868Z" fill="black"/>
<path d="M184.021 138.393C184.021 142.545 184.069 144.97 184.164 145.667C184.418 147.494 184.959 148.806 185.785 149.604C185.785 149.969 185.149 150.517 183.878 151.248C182.639 151.979 181.511 152.344 180.494 152.344C180.208 152.344 179.906 151.896 179.588 150.999C179.27 150.135 179.079 149.487 179.016 149.056C178.984 148.624 178.952 148.408 178.921 148.408L178.778 148.507C177.093 149.903 175.123 150.6 172.866 150.6C170.61 150.6 168.862 150.035 167.623 148.906C166.415 147.743 165.811 146.232 165.811 144.372C165.811 142.512 166.193 140.95 166.955 139.688C167.75 138.393 168.671 137.413 169.72 136.748C170.769 136.084 171.929 135.553 173.2 135.154C175.139 134.49 176.664 134.157 177.776 134.157L177.872 134.108C177.872 132.48 175.901 131.666 171.961 131.666C170.403 131.666 169.243 131.733 168.481 131.865H168.433C168.433 131.201 168.624 130.371 169.005 129.374C169.418 128.378 169.752 127.73 170.006 127.431C170.292 127.132 171.436 126.982 173.438 126.982C177.061 126.982 179.731 127.713 181.447 129.175C183.163 130.603 184.021 132.829 184.021 135.852V138.393ZM178.73 141.582V139.688C178.73 138.957 178.714 138.592 178.682 138.592C176.553 138.592 174.71 139.173 173.152 140.336C172.167 141.067 171.675 141.98 171.675 143.076C171.675 143.774 171.913 144.355 172.39 144.82C172.866 145.285 173.581 145.518 174.535 145.518C175.52 145.518 176.458 145.219 177.347 144.621C178.269 144.023 178.73 143.01 178.73 141.582Z" fill="black"/>
<path d="M144.705 130.022L144.753 124.641C144.753 123.212 144.721 122.432 144.658 122.299C144.308 121.933 143.847 121.053 143.275 119.658C142.735 118.263 142.465 117.366 142.465 116.967C142.815 116.602 148.392 116.419 159.197 116.419C161.867 116.419 163.202 116.486 163.202 116.619C163.202 117.316 163.043 118.08 162.725 118.911C162.439 119.741 162.121 120.405 161.771 120.904C161.454 121.402 161.215 121.634 161.056 121.601C160.929 121.535 160.278 121.502 159.102 121.502C157.958 121.502 156.353 121.585 154.287 121.751C152.222 121.884 151.093 122.05 150.903 122.249C150.712 122.448 150.617 124.275 150.617 127.73L150.664 129.823C151.936 129.789 153.811 129.773 156.289 129.773C158.768 129.773 160.008 129.823 160.008 129.922C160.008 131.118 159.626 132.48 158.864 134.008C158.578 134.539 158.403 134.789 158.339 134.755C157.513 134.755 156.099 134.838 154.097 135.005C152.094 135.137 150.934 135.303 150.617 135.503C150.585 135.536 150.569 136.931 150.569 139.688C150.569 142.445 150.648 143.907 150.807 144.073C151.316 144.604 154.049 144.87 159.007 144.87C161.009 144.87 162.359 144.82 163.059 144.721C163.758 144.588 164.107 144.538 164.107 144.571C164.107 145.368 163.853 146.315 163.345 147.411C162.836 148.507 162.296 149.338 161.724 149.903C161.406 150.235 158.546 150.401 153.143 150.401C147.772 150.401 144.992 150.268 144.801 150.002C144.61 149.836 144.515 148.242 144.515 145.219C144.515 142.163 144.547 138.941 144.61 135.553C144.038 135.021 143.482 134.191 142.942 133.061C142.433 131.932 142.179 130.969 142.179 130.171C142.179 130.138 143.021 130.088 144.705 130.022Z" fill="black"/>
<path d="M139.059 143.774C139.059 145.568 138.249 147.179 136.628 148.607C135.039 150.002 133.307 150.999 131.432 151.597C129.588 152.228 127.968 152.543 126.569 152.543C126.41 152.543 126.188 152.344 125.902 151.945C125.107 150.849 124.71 149.57 124.71 148.109V147.76C127.189 147.76 129.08 147.312 130.383 146.415C131.686 145.518 132.337 144.588 132.337 143.624C132.337 142.993 131.94 142.329 131.146 141.631C130.351 140.934 129.477 140.319 128.524 139.788C127.57 139.256 126.696 138.559 125.902 137.695C125.107 136.798 124.71 135.868 124.71 134.905C124.71 132.879 125.918 131.018 128.333 129.324C130.748 127.63 133.323 126.783 136.056 126.783C136.374 126.783 136.787 127.248 137.295 128.178C137.804 129.075 138.074 130.005 138.106 130.969C137.47 130.969 136.517 131.168 135.245 131.566C132.735 132.397 131.479 133.427 131.479 134.656C131.479 135.519 132.719 136.699 135.198 138.193C136.151 138.758 137.025 139.539 137.82 140.535C138.614 141.532 139.027 142.611 139.059 143.774Z" fill="black"/>
<path d="M116.069 147.611L116.022 146.564L115.974 146.465C115.211 147.694 114.242 148.674 113.066 149.404C111.922 150.135 110.794 150.5 109.681 150.5C106.344 150.5 104.438 147.793 103.961 142.379C103.897 141.515 103.866 139.29 103.866 135.702C103.866 132.115 104.009 129.989 104.295 129.324C105.121 128.627 106.456 128.278 108.299 128.278C109.03 128.278 109.475 128.361 109.634 128.527C109.634 128.56 109.618 129.009 109.586 129.872C109.427 132.397 109.348 134.34 109.348 135.702C109.348 137.064 109.364 138.077 109.395 138.741C109.427 139.373 109.443 139.788 109.443 139.987C109.475 140.153 109.522 140.469 109.586 140.934C109.681 141.399 109.809 141.797 109.967 142.13C110.444 143.093 111.175 143.575 112.16 143.575C113.177 143.575 114.067 143.06 114.83 142.03C115.624 140.967 116.006 140.22 115.974 139.788V138.094C115.974 132.015 116.069 128.743 116.26 128.278C116.419 127.979 116.911 127.663 117.738 127.331C118.596 126.999 119.438 126.833 120.264 126.833C121.091 126.833 121.567 126.899 121.694 127.032L121.599 129.374C121.408 134.124 121.313 137.795 121.313 140.386C121.313 142.977 121.377 144.621 121.504 145.319C121.726 146.979 122.155 148.308 122.791 149.305C122.791 149.637 122.139 150.168 120.836 150.899C119.533 151.63 118.421 151.995 117.499 151.995C117.245 151.995 116.959 151.497 116.641 150.5C116.323 149.504 116.133 148.541 116.069 147.611Z" fill="black"/>
<path d="M87.8956 125.338L87.8479 127.68C96.3015 127.68 100.528 131.101 100.528 137.944C100.528 139.804 100.163 141.499 99.4319 143.027C98.7327 144.521 97.8587 145.717 96.81 146.614C95.7612 147.478 94.6172 148.208 93.3777 148.806C91.2484 149.836 89.3416 150.351 87.6573 150.351V151.098C87.6573 156.081 87.7844 159.403 88.0386 161.064C87.6255 161.496 86.9104 161.828 85.8935 162.06C84.8765 162.326 84.0502 162.459 83.4146 162.459C82.779 162.459 82.4612 162.409 82.4612 162.309C82.3341 161.246 82.2705 159.054 82.2705 155.732L82.5089 132.563C82.5089 129.839 82.4612 127.946 82.3659 126.883C82.7472 126.484 83.3828 126.102 84.2727 125.737C85.1943 125.371 85.9888 125.189 86.6562 125.189C87.3236 125.189 87.7367 125.239 87.8956 125.338ZM87.6573 142.329L87.7049 144.82C89.6435 144.82 91.3438 144.239 92.8057 143.076C94.2676 141.914 94.9985 140.236 94.9985 138.044C94.9985 134.456 92.5991 132.663 87.8003 132.663L87.7526 133.31C87.7526 133.742 87.7526 134.307 87.7526 135.005L87.6573 142.329Z" fill="black"/>
<path d="M50.9538 143.325L50.8108 131.616C50.8108 129.49 50.8903 128.344 51.0492 128.178C51.4305 127.813 52.0184 127.481 52.813 127.182C53.6075 126.85 54.3702 126.683 55.1011 126.683C55.8321 126.683 56.1976 126.75 56.1976 126.883C56.0704 128.344 56.0069 129.457 56.0069 130.221C56.0069 130.985 56.0387 131.367 56.1022 131.367C56.1658 131.367 56.2611 131.301 56.3882 131.168C56.5154 131.002 56.7378 130.769 57.0556 130.47C57.4052 130.138 58.0249 129.706 58.9148 129.175C59.8364 128.61 60.6786 128.328 61.4413 128.328C63.507 128.328 65.0643 129.291 66.113 131.218C67.9245 128.56 69.9266 127.232 72.1195 127.232C74.0899 127.232 75.5041 128.112 76.3621 129.872C77.252 131.832 77.7764 133.792 77.9353 135.752C78.126 138.609 78.2213 141.565 78.2213 144.621L78.0306 150.451C78.0306 150.683 77.5062 150.899 76.4575 151.098C75.4087 151.331 74.5666 151.447 73.931 151.447L72.4055 151.198C72.7551 147.909 72.9299 145.252 72.9299 143.226C72.9299 141.2 72.8981 139.755 72.8345 138.891C72.8028 137.994 72.6915 137.114 72.5008 136.25C72.3102 135.353 72.0082 134.722 71.5951 134.357C71.2137 133.958 70.7211 133.759 70.1173 133.759C69.5135 133.759 68.9732 133.942 68.4965 134.307C68.0198 134.639 67.6702 134.971 67.4478 135.303C67.2571 135.636 67.1618 135.852 67.1618 135.951C67.2571 137.014 67.3048 139.472 67.3048 143.325L67.1141 147.262C67.1141 147.527 66.6056 147.76 65.5886 147.959C64.5717 148.159 63.7454 148.258 63.1098 148.258L61.5843 148.009C61.8703 145.319 62.0134 142.811 62.0134 140.485C62.0134 138.127 61.8862 136.483 61.632 135.553C61.4095 134.589 60.7898 134.108 59.7728 134.108C58.7559 134.108 57.8978 134.639 57.1986 135.702C56.4995 136.765 56.1499 137.579 56.1499 138.144V139.19L56.1976 144.471C56.1976 147.727 56.134 149.438 56.0069 149.604C55.2124 150.401 53.5439 150.799 51.0015 150.799C50.7472 150.799 50.6201 150.75 50.6201 150.65C50.8426 149.222 50.9538 146.78 50.9538 143.325Z" fill="black"/>
<path d="M46.317 138.393C46.317 142.545 46.3647 144.97 46.46 145.667C46.7143 147.494 47.2545 148.806 48.0808 149.604C48.0808 149.969 47.4452 150.517 46.174 151.248C44.9346 151.979 43.8064 152.344 42.7894 152.344C42.5034 152.344 42.2015 151.896 41.8837 150.999C41.5659 150.135 41.3752 149.487 41.3116 149.056C41.2799 148.624 41.2481 148.408 41.2163 148.408L41.0733 148.507C39.3889 149.903 37.4186 150.6 35.1622 150.6C32.9058 150.6 31.1578 150.035 29.9184 148.906C28.7108 147.743 28.1069 146.232 28.1069 144.372C28.1069 142.512 28.4883 140.95 29.251 139.688C30.0455 138.393 30.9672 137.413 32.0159 136.748C33.0647 136.084 34.2246 135.553 35.4958 135.154C37.4344 134.49 38.9599 134.157 40.0722 134.157L40.1675 134.108C40.1675 132.48 38.1972 131.666 34.2564 131.666C32.6992 131.666 31.5392 131.733 30.7765 131.865H30.7288C30.7288 131.201 30.9195 130.371 31.3009 129.374C31.714 128.378 32.0477 127.73 32.3019 127.431C32.588 127.132 33.732 126.982 35.7342 126.982C39.3572 126.982 42.0267 127.713 43.7428 129.175C45.459 130.603 46.317 132.829 46.317 135.852V138.393ZM41.0256 141.582V139.688C41.0256 138.957 41.0097 138.592 40.9779 138.592C38.8487 138.592 37.0054 139.173 35.4482 140.336C34.463 141.067 33.9704 141.98 33.9704 143.076C33.9704 143.774 34.2087 144.355 34.6855 144.82C35.1622 145.285 35.8772 145.518 36.8306 145.518C37.8158 145.518 38.7533 145.219 39.6432 144.621C40.5648 144.023 41.0256 143.01 41.0256 141.582Z" fill="black"/>
<path d="M14.1104 151.049C9.47052 151.049 5.9588 149.653 3.57528 146.863C1.19176 144.073 0 140.469 0 136.051C0 132.297 0.794507 128.809 2.38352 125.587C3.30515 123.694 4.46513 122.033 5.86346 120.605C7.26179 119.176 9.15272 117.997 11.5362 117.067C13.9198 116.137 16.6211 115.672 19.6402 115.672C20.6572 115.672 21.5629 115.772 22.3574 115.971C23.1519 116.17 23.5492 116.303 23.5492 116.369C23.5492 117.964 23.438 119.791 23.2155 121.85C23.0248 123.877 22.9136 124.906 22.8818 124.94C22.7229 125.106 22.0555 125.371 20.8796 125.737C19.7356 126.102 18.8775 126.285 18.3054 126.285V125.986C18.3054 124.491 18.0989 123.445 17.6857 122.847C17.2726 122.249 16.5575 121.95 15.5406 121.95C13.2842 121.95 11.1867 123.196 9.24806 125.687C7.30947 128.145 6.34017 131.533 6.34017 135.852C6.34017 138.144 6.88043 140.203 7.96096 142.03C8.53301 142.993 9.35929 143.774 10.4398 144.372C11.5521 144.97 12.8551 145.269 14.3488 145.269C17.3361 145.269 20.244 143.824 23.0725 140.934C23.1996 140.934 23.4538 141.15 23.8352 141.582C24.2484 141.98 24.6456 142.528 25.027 143.226C25.8215 144.555 26.2187 145.368 26.2187 145.667C26.2187 145.966 25.7261 146.531 24.7409 147.361C23.7558 148.159 22.2621 148.972 20.2599 149.803C18.2578 150.633 16.2079 151.049 14.1104 151.049Z" fill="black"/>
<path d="M622.341 18.4357C622.341 17.4724 621.849 16.9908 620.864 16.9908C619.561 16.9908 618.417 17.6883 617.431 19.0835C616.446 20.4786 615.954 22.1561 615.954 24.1159C615.954 24.581 616.017 24.8135 616.144 24.8135C617.288 24.7803 618.607 24.0993 620.101 22.7706C621.595 21.4087 622.341 19.9638 622.341 18.4357ZM626.489 34.2805C625.408 35.0445 623.295 35.4265 620.149 35.4265C617.002 35.4265 614.587 34.4466 612.903 32.4868C611.218 30.5269 610.376 27.9194 610.376 24.664C610.376 21.3755 611.377 18.5354 613.379 16.1437C615.413 13.7188 618.258 12.5064 621.912 12.5064C623.406 12.5064 624.773 12.9216 626.012 13.7521C627.283 14.5825 627.919 16.0441 627.919 18.1368C627.919 20.1963 627.045 22.2392 625.297 24.2654C623.581 26.2917 621.229 27.8363 618.242 28.8993C618.242 29.2979 618.623 29.6301 619.386 29.8958C620.18 30.1283 620.959 30.2446 621.722 30.2446C624.137 30.2446 626.044 29.7962 627.442 28.8993C627.474 28.8661 627.522 28.8495 627.585 28.8495C627.649 28.8495 627.68 29.165 627.68 29.7962C627.68 31.7228 627.283 33.2176 626.489 34.2805Z" fill="black"/>
<path d="M579.774 28.102L579.631 16.3928C579.631 14.2669 579.711 13.1209 579.87 12.9548C580.251 12.5894 580.839 12.2572 581.633 11.9583C582.428 11.6261 583.191 11.46 583.922 11.46C584.652 11.46 585.018 11.5265 585.018 11.6593C584.891 13.1209 584.827 14.2337 584.827 14.9977C584.827 15.7617 584.859 16.1437 584.923 16.1437C584.986 16.1437 585.081 16.0773 585.209 15.9444C585.336 15.7783 585.558 15.5458 585.876 15.2468C586.226 14.9146 586.845 14.4828 587.735 13.9513C588.657 13.3866 589.499 13.1043 590.262 13.1043C592.327 13.1043 593.885 14.0676 594.933 15.9942C596.745 13.3368 598.747 12.0081 600.94 12.0081C602.91 12.0081 604.324 12.8884 605.183 14.6489C606.072 16.6087 606.597 18.5686 606.756 20.5284C606.946 23.3851 607.042 26.3415 607.042 29.3975L606.851 35.2272C606.851 35.4597 606.327 35.6756 605.278 35.8749C604.229 36.1075 603.387 36.2237 602.751 36.2237L601.226 35.9746C601.575 32.6861 601.75 30.0286 601.75 28.0024C601.75 25.9761 601.718 24.5311 601.655 23.6675C601.623 22.7706 601.512 21.8903 601.321 21.0267C601.131 20.1298 600.829 19.4987 600.415 19.1333C600.034 18.7347 599.541 18.5354 598.938 18.5354C598.334 18.5354 597.794 18.7181 597.317 19.0835C596.84 19.4156 596.491 19.7478 596.268 20.08C596.077 20.4122 595.982 20.6281 595.982 20.7277C596.077 21.7907 596.125 24.2488 596.125 28.102L595.934 32.0383C595.934 32.304 595.426 32.5366 594.409 32.7359C593.392 32.9352 592.566 33.0348 591.93 33.0348L590.405 32.7857C590.691 30.0951 590.834 27.5872 590.834 25.2619C590.834 22.9035 590.707 21.2592 590.452 20.3291C590.23 19.3658 589.61 18.8842 588.593 18.8842C587.576 18.8842 586.718 19.4156 586.019 20.4786C585.32 21.5416 584.97 22.3554 584.97 22.9201V23.9664L585.018 29.248C585.018 32.5034 584.954 34.2141 584.827 34.3801C584.033 35.1774 582.364 35.576 579.822 35.576C579.568 35.576 579.44 35.5262 579.44 35.4265C579.663 33.9981 579.774 31.5567 579.774 28.102Z" fill="black"/>
<path d="M572.351 4.53418C573.241 4.53418 573.956 4.83314 574.496 5.43105C575.036 6.02897 575.306 6.80958 575.306 7.77289C575.306 8.7362 574.941 9.56664 574.21 10.2642C573.511 10.9286 572.716 11.2607 571.826 11.2607C570.968 11.2607 570.269 10.9784 569.729 10.4137C569.22 9.81577 568.966 9.03516 568.966 8.07185C568.966 7.10854 569.316 6.2781 570.015 5.58053C570.714 4.88296 571.493 4.53418 572.351 4.53418ZM574.782 16.9409L574.687 25.0128C574.687 27.6038 574.75 29.5138 574.877 30.7428C575.036 31.9387 575.449 33.0681 576.117 34.131C576.117 34.4632 575.465 34.9947 574.162 35.7255C572.859 36.4563 571.747 36.8217 570.825 36.8217C570.539 36.8217 570.253 36.3234 569.967 35.3269C569.681 34.3303 569.49 33.3836 569.395 32.4868C569.332 31.5899 569.3 28.5671 569.3 23.4184C569.3 18.2696 569.411 15.4628 569.634 14.9977C570.364 14.3998 571.652 14.1008 573.495 14.1008C574.226 14.1008 574.671 14.2005 574.83 14.3998L574.782 16.9409Z" fill="black"/>
<path d="M553.775 30.2944L554.109 9.56665C554.109 7.87255 554.061 6.99229 553.966 6.92585C553.902 6.8262 553.648 6.77637 553.203 6.77637C552.218 6.77637 550.47 6.94246 547.959 7.27464L546.672 7.47394L546.529 6.17846C546.529 4.58401 546.784 3.18888 547.292 1.99305L547.578 1.39513C550.057 1.36191 552.854 1.26226 555.968 1.09617C559.114 0.896864 561.943 0.797211 564.453 0.797211C566.996 0.797211 568.267 0.863646 568.267 0.996517C568.267 1.95983 568.188 3.12244 568.029 4.48436C567.87 5.81307 567.679 6.59368 567.457 6.8262C566.726 6.66011 565.375 6.57707 563.405 6.57707C561.434 6.57707 560.401 6.62689 560.306 6.72655C560.084 6.95907 559.972 11.294 559.972 19.7312C559.972 28.1685 560.449 33.3006 561.402 35.1276V35.1774C561.402 35.4764 560.783 35.7587 559.543 36.0244C558.304 36.2902 557.319 36.4231 556.588 36.4231C555.571 36.4231 554.744 36.2736 554.109 35.9746C553.886 35.7089 553.775 33.8155 553.775 30.2944Z" fill="black"/>
<path d="M523.439 27.5539L523.344 16.2434C523.344 14.2835 523.407 13.2372 523.535 13.1043C523.884 12.7389 524.488 12.4233 525.346 12.1576C526.204 11.8586 526.999 11.7092 527.73 11.7092C528.492 11.7092 528.874 11.7922 528.874 11.9583C528.778 12.8552 528.731 13.8849 528.731 15.0475C528.731 16.1769 528.762 16.7416 528.826 16.7416C528.89 16.7416 528.953 16.7084 529.017 16.642C529.08 16.5423 529.176 16.4095 529.303 16.2434C529.462 16.0441 529.764 15.7119 530.208 15.2468C530.685 14.7818 531.194 14.3832 531.734 14.051C533.1 13.1209 534.562 12.6559 536.12 12.6559C536.374 13.0877 536.501 13.752 536.501 14.6489C536.501 16.5423 536.278 17.8876 535.834 18.6849L535.643 19.0835L535.023 18.9838C532.735 18.9838 530.939 19.9637 529.636 21.9236C529.128 22.7208 528.874 23.3187 528.874 23.7173V28.102C528.874 32.0881 528.826 34.131 528.731 34.2307C527.841 35.1276 526.093 35.576 523.487 35.576C523.233 35.576 523.106 35.5262 523.106 35.4265C523.328 34.131 523.439 31.5068 523.439 27.5539Z" fill="black"/>
<path d="M513.284 32.3871L513.236 31.3407L513.189 31.2411C512.426 32.4701 511.457 33.4501 510.281 34.1808C509.137 34.9116 508.008 35.277 506.896 35.277C503.559 35.277 501.652 32.5698 501.176 27.1553C501.112 26.2917 501.08 24.0661 501.08 20.4786C501.08 16.8911 501.223 14.7652 501.509 14.1008C502.336 13.4032 503.67 13.0545 505.514 13.0545C506.245 13.0545 506.69 13.1375 506.849 13.3036C506.849 13.3368 506.833 13.7852 506.801 14.6489C506.642 17.1734 506.562 19.1167 506.562 20.4786C506.562 21.8405 506.578 22.8536 506.61 23.518C506.642 24.1491 506.658 24.5644 506.658 24.7637C506.69 24.9297 506.737 25.2453 506.801 25.7104C506.896 26.1754 507.023 26.574 507.182 26.9062C507.659 27.8695 508.39 28.3512 509.375 28.3512C510.392 28.3512 511.282 27.8363 512.045 26.8065C512.839 25.7436 513.22 24.9962 513.189 24.5643V22.8703C513.189 16.7914 513.284 13.5195 513.475 13.0545C513.634 12.7555 514.126 12.4399 514.952 12.1078C515.811 11.7756 516.653 11.6095 517.479 11.6095C518.305 11.6095 518.782 11.6759 518.909 11.8088L518.814 14.1506C518.623 18.9008 518.528 22.5713 518.528 25.1623C518.528 27.7532 518.591 29.3975 518.718 30.0951C518.941 31.756 519.37 33.0847 520.006 34.0812C520.006 34.4134 519.354 34.9448 518.051 35.6756C516.748 36.4064 515.636 36.7718 514.714 36.7718C514.46 36.7718 514.174 36.2735 513.856 35.277C513.538 34.2805 513.348 33.3172 513.284 32.3871Z" fill="black"/>
<path d="M497.726 23.9167C497.726 27.0723 496.804 29.8128 494.961 32.138C493.149 34.43 490.67 35.576 487.524 35.576C484.41 35.576 481.963 34.5629 480.183 32.5366C478.403 30.5103 477.513 27.8862 477.513 24.6641C477.513 21.4087 478.61 18.5354 480.803 16.0441C483.027 13.5196 486.015 12.2573 489.765 12.2573C491.29 12.3237 492.116 12.4234 492.243 12.5563C492.371 12.6891 492.434 13.0047 492.434 13.503C492.434 14.0012 492.386 14.5493 492.291 15.1472C492.768 15.1472 493.372 15.4462 494.103 16.0441C494.865 16.6088 495.485 17.1901 495.962 17.788C496.438 18.3859 496.852 19.233 497.201 20.3292C497.551 21.3921 497.726 22.588 497.726 23.9167ZM490.766 20.4288C490.035 19.9306 489.32 19.6814 488.621 19.6814H488.239C488.176 19.5486 488.144 19.2662 488.144 18.8344C488.144 18.4025 488.191 17.9873 488.287 17.5887C486.984 17.5887 485.76 18.2032 484.616 19.4323C483.504 20.6613 482.948 22.372 482.948 24.5644C482.948 27.1554 483.742 28.9491 485.331 29.9457C485.935 30.3443 486.761 30.5436 487.81 30.5436C488.891 30.5436 489.892 30.0287 490.813 28.999C491.767 27.9692 492.243 26.4412 492.243 24.4149C492.243 22.3887 491.751 21.06 490.766 20.4288Z" fill="black"/>
<path d="M457.92 35.7753L458.063 22.0731V21.4253C457.173 20.1298 455.584 17.3562 453.296 13.1043C451.039 8.81924 449.816 6.54384 449.625 6.2781C448.894 5.51409 447.893 5.13209 446.622 5.13209C446.59 5.06566 446.574 4.88296 446.574 4.584C446.574 4.28504 446.669 3.82 446.86 3.18886C447.083 2.52451 447.226 2.15912 447.289 2.09268C447.385 1.99303 447.686 1.89338 448.195 1.79373C449.561 1.52798 450.944 1.39511 452.342 1.39511C453.741 1.39511 454.471 1.42833 454.535 1.49477C454.63 1.5612 455.075 2.47469 455.87 4.23522C458.349 9.74933 460.176 13.4365 461.352 15.2967H461.447C461.638 14.5659 462.989 11.9251 465.499 7.37428C468.042 2.82347 469.519 0.548065 469.933 0.548065C470.886 0.548065 471.839 0.680936 472.793 0.946677C473.746 1.21242 474.493 1.51138 475.033 1.84355C475.574 2.14251 475.828 2.39164 475.796 2.59095C474.112 4.55078 471.871 7.70645 469.075 12.058C466.31 16.3762 464.673 19.4987 464.164 21.4253C464.101 22.0897 464.069 24.2322 464.069 27.8529C464.069 31.4736 464.196 33.8487 464.451 34.9781C464.451 35.3767 463.942 35.6757 462.925 35.875C461.908 36.0743 460.907 36.1739 459.922 36.1739C458.968 36.1739 458.301 36.041 457.92 35.7753Z" fill="black"/>
<path d="M430.03 18.4357C430.03 17.4724 429.538 16.9908 428.552 16.9908C427.249 16.9908 426.105 17.6883 425.12 19.0835C424.135 20.4786 423.642 22.1561 423.642 24.1159C423.642 24.581 423.706 24.8135 423.833 24.8135C424.977 24.7803 426.296 24.0993 427.79 22.7706C429.283 21.4087 430.03 19.9638 430.03 18.4357ZM434.178 34.2805C433.097 35.0445 430.984 35.4265 427.837 35.4265C424.691 35.4265 422.276 34.4466 420.591 32.4868C418.907 30.5269 418.065 27.9194 418.065 24.664C418.065 21.3755 419.066 18.5354 421.068 16.1437C423.102 13.7188 425.946 12.5064 429.601 12.5064C431.095 12.5064 432.461 12.9216 433.701 13.7521C434.972 14.5825 435.608 16.0441 435.608 18.1368C435.608 20.1963 434.734 22.2392 432.986 24.2654C431.27 26.2917 428.918 27.8363 425.931 28.8993C425.931 29.2979 426.312 29.6301 427.075 29.8958C427.869 30.1283 428.648 30.2446 429.41 30.2446C431.826 30.2446 433.733 29.7962 435.131 28.8993C435.163 28.8661 435.21 28.8495 435.274 28.8495C435.338 28.8495 435.369 29.165 435.369 29.7962C435.369 31.7228 434.972 33.2176 434.178 34.2805Z" fill="black"/>
<path d="M403.565 27.5539L403.47 16.2434C403.47 14.2835 403.533 13.2372 403.66 13.1043C404.01 12.7389 404.614 12.4233 405.472 12.1576C406.33 11.8586 407.124 11.7092 407.855 11.7092C408.618 11.7092 408.999 11.7922 408.999 11.9583C408.904 12.8552 408.856 13.8849 408.856 15.0475C408.856 16.1769 408.888 16.7416 408.952 16.7416C409.015 16.7416 409.079 16.7084 409.142 16.642C409.206 16.5423 409.301 16.4095 409.428 16.2434C409.587 16.0441 409.889 15.7119 410.334 15.2468C410.811 14.7818 411.319 14.3832 411.86 14.051C413.226 13.1209 414.688 12.6559 416.245 12.6559C416.5 13.0877 416.627 13.752 416.627 14.6489C416.627 16.5423 416.404 17.8876 415.959 18.6849L415.769 19.0835L415.149 18.9838C412.861 18.9838 411.065 19.9637 409.762 21.9236C409.254 22.7208 408.999 23.3187 408.999 23.7173V28.102C408.999 32.0881 408.952 34.131 408.856 34.2307C407.967 35.1276 406.219 35.576 403.613 35.576C403.358 35.576 403.231 35.5262 403.231 35.4265C403.454 34.131 403.565 31.5068 403.565 27.5539Z" fill="black"/>
<path d="M393.41 32.3871L393.362 31.3407L393.314 31.2411C392.552 32.4701 391.582 33.4501 390.406 34.1808C389.262 34.9116 388.134 35.277 387.022 35.277C383.685 35.277 381.778 32.5698 381.301 27.1553C381.238 26.2917 381.206 24.0661 381.206 20.4786C381.206 16.8911 381.349 14.7652 381.635 14.1008C382.461 13.4032 383.796 13.0545 385.639 13.0545C386.37 13.0545 386.815 13.1375 386.974 13.3036C386.974 13.3368 386.958 13.7852 386.927 14.6489C386.768 17.1734 386.688 19.1167 386.688 20.4786C386.688 21.8405 386.704 22.8536 386.736 23.518C386.768 24.1491 386.784 24.5644 386.784 24.7637C386.815 24.9297 386.863 25.2453 386.927 25.7104C387.022 26.1754 387.149 26.574 387.308 26.9062C387.785 27.8695 388.516 28.3512 389.501 28.3512C390.518 28.3512 391.408 27.8363 392.17 26.8065C392.965 25.7436 393.346 24.9962 393.314 24.5643V22.8703C393.314 16.7914 393.41 13.5195 393.6 13.0545C393.759 12.7555 394.252 12.4399 395.078 12.1078C395.936 11.7756 396.778 11.6095 397.605 11.6095C398.431 11.6095 398.908 11.6759 399.035 11.8088L398.94 14.1506C398.749 18.9008 398.653 22.5713 398.653 25.1623C398.653 27.7532 398.717 29.3975 398.844 30.0951C399.067 31.756 399.496 33.0847 400.131 34.0812C400.131 34.4134 399.48 34.9448 398.177 35.6756C396.874 36.4064 395.761 36.7718 394.84 36.7718C394.586 36.7718 394.3 36.2735 393.982 35.277C393.664 34.2805 393.473 33.3172 393.41 32.3871Z" fill="black"/>
<path d="M373.112 35.7255C369.489 35.7255 366.804 34.7622 365.056 32.8355C363.308 30.9089 362.434 28.484 362.434 25.5609C362.434 21.4751 363.737 18.2198 366.343 15.7949C368.981 13.37 372.191 12.1576 375.972 12.1576C376.703 12.1576 377.132 12.1742 377.259 12.2074C377.45 12.3735 377.546 13.1707 377.546 14.5991C377.546 16.0274 377.355 16.8911 376.973 17.1901H376.64C374.193 17.1901 372.206 17.788 370.681 18.9838C370.045 19.4821 369.489 20.2627 369.013 21.3256C368.536 22.3886 368.297 23.6675 368.297 25.1623C368.297 26.6571 368.726 27.9027 369.585 28.8993C370.443 29.8626 371.825 30.3442 373.732 30.3442C375.226 30.3442 376.544 30.0453 377.689 29.4473C377.816 29.3809 377.895 29.3477 377.927 29.3477C378.181 29.6134 378.308 30.5103 378.308 32.0383C378.308 33.5663 378.133 34.4798 377.784 34.7788C376.735 35.4099 375.178 35.7255 373.112 35.7255Z" fill="black"/>
<path d="M354.8 18.4357C354.8 17.4724 354.308 16.9908 353.323 16.9908C352.02 16.9908 350.876 17.6883 349.89 19.0835C348.905 20.4786 348.413 22.1561 348.413 24.1159C348.413 24.581 348.476 24.8135 348.603 24.8135C349.747 24.7803 351.066 24.0993 352.56 22.7706C354.054 21.4087 354.8 19.9638 354.8 18.4357ZM358.948 34.2805C357.867 35.0445 355.754 35.4265 352.608 35.4265C349.461 35.4265 347.046 34.4466 345.362 32.4868C343.677 30.5269 342.835 27.9194 342.835 24.664C342.835 21.3755 343.836 18.5354 345.838 16.1437C347.872 13.7188 350.717 12.5064 354.371 12.5064C355.865 12.5064 357.232 12.9216 358.471 13.7521C359.742 14.5825 360.378 16.0441 360.378 18.1368C360.378 20.1963 359.504 22.2392 357.756 24.2654C356.04 26.2917 353.688 27.8363 350.701 28.8993C350.701 29.2979 351.082 29.6301 351.845 29.8958C352.639 30.1283 353.418 30.2446 354.181 30.2446C356.596 30.2446 358.503 29.7962 359.901 28.8993C359.933 28.8661 359.981 28.8495 360.044 28.8495C360.108 28.8495 360.14 29.165 360.14 29.7962C360.14 31.7228 359.742 33.2176 358.948 34.2805Z" fill="black"/>
<path d="M336.373 5.82969C335.865 5.76326 335.277 5.73004 334.609 5.73004C333.974 5.73004 333.179 5.79648 332.226 5.92935C331.304 6.06222 330.335 6.27813 329.318 6.57709C328.333 6.84283 327.522 7.27466 326.887 7.87257C326.251 8.47049 325.933 9.20128 325.933 10.0649C325.933 10.8954 326.41 11.6428 327.363 12.3071C328.349 12.9383 329.524 13.5362 330.891 14.1009C332.258 14.6323 333.624 15.2469 334.991 15.9444C336.389 16.642 337.565 17.6718 338.518 19.0337C339.503 20.3624 339.996 21.9734 339.996 23.8668C339.996 27.2218 338.455 30.0785 335.372 32.437C332.321 34.7622 328.46 35.9248 323.788 35.9248C321.436 35.9248 319.688 35.7919 318.544 35.5262C318.258 35.2272 318.115 33.4501 318.115 30.1948C318.115 26.9062 318.179 24.9298 318.306 24.2654C318.401 23.9665 318.958 23.6011 319.975 23.1693C320.991 22.7374 321.977 22.5215 322.93 22.5215C322.93 26.4412 323.327 28.8163 324.122 29.6467C324.44 29.9789 325.043 30.145 325.933 30.145C327.967 30.145 329.731 29.547 331.225 28.3512C332.75 27.1554 333.513 25.7436 333.513 24.116C333.513 23.0198 333.02 22.0565 332.035 21.226C331.05 20.3956 329.842 19.6814 328.412 19.0835C327.014 18.4524 325.615 17.8046 324.217 17.1403C322.819 16.4427 321.627 15.496 320.642 14.3002C319.657 13.1043 319.164 11.6926 319.164 10.0649C319.164 7.64005 320.547 5.43108 323.311 3.43803C326.108 1.41176 330.144 0.398621 335.42 0.398621C336.659 0.398621 337.358 0.481664 337.517 0.647752C337.549 0.747404 337.565 0.996535 337.565 1.39515C337.565 1.76054 337.454 2.49133 337.231 3.5875C337.009 4.68369 336.723 5.43108 336.373 5.82969Z" fill="black"/>
<path d="M305.489 32.138C305.489 34.2639 305.092 35.9082 304.298 37.0708C303.503 38.2667 302.756 38.9476 302.057 39.1137C301.104 39.1137 300.436 38.7317 300.055 37.9677C301.485 36.9047 302.28 35.6923 302.439 34.3304C300.691 34.3304 299.817 33.4667 299.817 31.7394C299.817 30.8093 300.071 30.0287 300.579 29.3976C301.12 28.7332 301.835 28.401 302.725 28.401C303.646 28.401 304.329 28.783 304.774 29.547C305.251 30.2778 305.489 31.1415 305.489 32.138Z" fill="black"/>
<path d="M291.767 18.4357C291.767 17.4724 291.275 16.9908 290.29 16.9908C288.987 16.9908 287.843 17.6883 286.857 19.0835C285.872 20.4786 285.38 22.1561 285.38 24.1159C285.38 24.581 285.443 24.8135 285.57 24.8135C286.714 24.7803 288.033 24.0993 289.527 22.7706C291.021 21.4087 291.767 19.9638 291.767 18.4357ZM295.915 34.2805C294.834 35.0445 292.721 35.4265 289.575 35.4265C286.428 35.4265 284.013 34.4466 282.329 32.4868C280.644 30.5269 279.802 27.9194 279.802 24.664C279.802 21.3755 280.803 18.5354 282.805 16.1437C284.839 13.7188 287.684 12.5064 291.338 12.5064C292.832 12.5064 294.199 12.9216 295.438 13.7521C296.709 14.5825 297.345 16.0441 297.345 18.1368C297.345 20.1963 296.471 22.2392 294.723 24.2654C293.007 26.2917 290.655 27.8363 287.668 28.8993C287.668 29.2979 288.049 29.6301 288.812 29.8958C289.606 30.1283 290.385 30.2446 291.148 30.2446C293.563 30.2446 295.47 29.7962 296.868 28.8993C296.9 28.8661 296.948 28.8495 297.011 28.8495C297.075 28.8495 297.106 29.165 297.106 29.7962C297.106 31.7228 296.709 33.2176 295.915 34.2805Z" fill="black"/>
<path d="M264.364 23.0696L264.412 24.9132V28.7C264.412 32.2543 264.349 34.0979 264.221 34.2307C263.808 34.6626 263.093 34.9947 262.076 35.2272C261.059 35.4598 260.217 35.576 259.55 35.576C258.914 35.576 258.596 35.5262 258.596 35.4266C258.819 33.9318 258.93 31.4737 258.93 28.0523L258.787 16.8413C258.787 14.7818 258.866 13.669 259.025 13.503C259.375 13.1376 259.979 12.822 260.837 12.5563C261.695 12.2573 262.489 12.1078 263.22 12.1078C263.983 12.1078 264.364 12.1909 264.364 12.357C264.269 13.1542 264.221 13.9514 264.221 14.7486C264.221 15.5458 264.269 15.9444 264.364 15.9444L264.507 15.8448C264.666 15.6123 264.905 15.3299 265.222 14.9977C265.54 14.6324 266.208 14.1673 267.225 13.6026C268.273 13.0047 269.259 12.7057 270.18 12.7057C271.134 12.7057 271.928 12.8884 272.564 13.2538C273.231 13.586 273.771 14.0012 274.185 14.4995C274.598 14.9977 274.947 15.7119 275.233 16.642C275.551 17.5721 275.789 18.4358 275.948 19.233C276.107 20.0302 276.234 21.0932 276.33 22.4219C276.425 24.2488 276.473 26.5741 276.473 29.3976L276.33 35.2272C276.33 35.4598 275.805 35.6757 274.757 35.875C273.708 36.1075 272.866 36.2238 272.23 36.2238L270.657 35.9746C270.975 32.9851 271.134 30.0951 271.134 27.3049C271.134 24.4814 270.959 22.372 270.609 20.9769C270.26 19.5486 269.56 18.8344 268.512 18.8344C267.463 18.8344 266.605 19.1333 265.938 19.7312C265.302 20.3292 264.889 20.9271 264.698 21.525L264.364 22.372V23.0696Z" fill="black"/>
<path d="M251.506 4.53418C252.396 4.53418 253.111 4.83314 253.652 5.43105C254.192 6.02897 254.462 6.80958 254.462 7.77289C254.462 8.7362 254.097 9.56664 253.366 10.2642C252.666 10.9286 251.872 11.2607 250.982 11.2607C250.124 11.2607 249.425 10.9784 248.885 10.4137C248.376 9.81577 248.122 9.03516 248.122 8.07185C248.122 7.10854 248.471 6.2781 249.171 5.58053C249.87 4.88296 250.648 4.53418 251.506 4.53418ZM253.938 16.9409L253.842 25.0128C253.842 27.6038 253.906 29.5138 254.033 30.7428C254.192 31.9387 254.605 33.0681 255.272 34.131C255.272 34.4632 254.621 34.9947 253.318 35.7255C252.015 36.4563 250.903 36.8217 249.981 36.8217C249.695 36.8217 249.409 36.3234 249.123 35.3269C248.837 34.3303 248.646 33.3836 248.551 32.4868C248.487 31.5899 248.456 28.5671 248.456 23.4184C248.456 18.2696 248.567 15.4628 248.789 14.9977C249.52 14.3998 250.807 14.1008 252.651 14.1008C253.381 14.1008 253.826 14.2005 253.985 14.3998L253.938 16.9409Z" fill="black"/>
<path d="M229.721 3.13906L229.435 23.6675C229.435 26.2253 229.483 28.1187 229.578 29.3477C230.087 29.4806 230.897 29.547 232.01 29.547C233.154 29.547 234.123 29.4474 234.917 29.2481C235.744 29.0488 236.427 28.7 236.967 28.2017C237.539 27.6702 238 27.1886 238.35 26.7568C238.699 26.2917 239.001 25.6107 239.255 24.7139C239.637 23.518 240.018 21.9402 240.4 19.9804C240.4 19.9472 240.622 19.9305 241.067 19.9305C241.544 19.9305 242.275 20.1631 243.26 20.6281C244.277 21.0599 244.785 21.3921 244.785 21.6246C244.785 24.1824 244.658 27.0723 244.404 30.2944C244.15 33.8819 243.832 35.6757 243.45 35.6757C243.101 35.6757 242.402 35.5262 241.353 35.2272C240.304 34.9615 239.51 34.7124 238.969 34.4798C236.109 34.9781 232.407 35.2438 227.862 35.2771L225.479 35.3269L223.572 35.0778C223.445 34.9449 223.381 33.4833 223.381 30.693L223.572 11.6095C223.572 7.72309 223.477 5.6636 223.286 5.43107C223.127 5.16533 222.841 4.5342 222.428 3.53767C222.015 2.50793 221.808 1.84358 221.808 1.54462C221.808 1.41175 222.158 1.22905 222.857 0.996526C224.605 0.332175 226.146 0 227.481 0C228.816 0 229.515 0.0498257 229.578 0.149477C229.674 0.249131 229.721 1.24566 229.721 3.13906Z" fill="black"/>
<path d="M203.596 18.4357C203.596 17.4724 203.103 16.9908 202.118 16.9908C200.815 16.9908 199.671 17.6883 198.686 19.0835C197.7 20.4786 197.208 22.1561 197.208 24.1159C197.208 24.581 197.271 24.8135 197.399 24.8135C198.543 24.7803 199.862 24.0993 201.355 22.7706C202.849 21.4087 203.596 19.9638 203.596 18.4357ZM207.743 34.2805C206.662 35.0445 204.549 35.4265 201.403 35.4265C198.257 35.4265 195.841 34.4466 194.157 32.4868C192.473 30.5269 191.63 27.9194 191.63 24.664C191.63 21.3755 192.631 18.5354 194.634 16.1437C196.668 13.7188 199.512 12.5064 203.167 12.5064C204.66 12.5064 206.027 12.9216 207.266 13.7521C208.538 14.5825 209.173 16.0441 209.173 18.1368C209.173 20.1963 208.299 22.2392 206.551 24.2654C204.835 26.2917 202.483 27.8363 199.496 28.8993C199.496 29.2979 199.877 29.6301 200.64 29.8958C201.435 30.1283 202.213 30.2446 202.976 30.2446C205.391 30.2446 207.298 29.7962 208.696 28.8993C208.728 28.8661 208.776 28.8495 208.839 28.8495C208.903 28.8495 208.935 29.165 208.935 29.7962C208.935 31.7228 208.538 33.2176 207.743 34.2805Z" fill="black"/>
<path d="M170.702 24.6142L170.559 7.32445C170.559 4.10235 170.638 2.40825 170.797 2.24216C171.178 1.84355 171.798 1.46155 172.656 1.09616C173.514 0.730762 174.341 0.548065 175.135 0.548065C175.93 0.548065 176.327 0.6145 176.327 0.747371C176.295 1.04633 176.231 3.22208 176.136 7.27462C176.041 11.3272 175.993 13.9846 175.993 15.2468V15.6953C175.993 15.8614 176.041 15.9444 176.136 15.9444L177.09 14.9479C177.439 14.6157 178.138 14.1673 179.187 13.6026C180.268 13.0047 181.269 12.7057 182.19 12.7057C183.144 12.7057 183.922 12.8718 184.526 13.204C185.162 13.5361 185.686 13.9347 186.099 14.3998C186.512 14.8648 186.862 15.5458 187.148 16.4427C187.434 17.3063 187.641 18.1202 187.768 18.8842C187.927 19.615 188.054 20.6281 188.149 21.9236C188.244 23.6841 188.292 25.9097 188.292 28.6003L188.101 35.2272C188.006 35.493 187.466 35.7255 186.481 35.9248C185.495 36.1241 184.685 36.2237 184.049 36.2237L182.476 35.9746C182.794 32.985 182.953 30.1117 182.953 27.3546C182.953 24.5976 182.762 22.5049 182.381 21.0765C182 19.6482 181.221 18.934 180.045 18.934C179.282 18.934 178.567 19.2496 177.9 19.8807C177.233 20.5118 176.772 21.143 176.517 21.7741L176.088 22.7208C176.152 25.0128 176.184 27.4709 176.184 30.0951C176.184 32.7193 176.104 34.0978 175.945 34.2307C174.992 35.1276 173.244 35.576 170.702 35.576C170.447 35.576 170.32 35.5262 170.32 35.4265C170.575 33.9649 170.702 30.3608 170.702 24.6142Z" fill="black"/>
<path d="M165.771 1.64428C165.708 2.40829 165.628 4.50099 165.533 7.9224C167.917 7.9224 169.108 7.97223 169.108 8.07188C169.108 9.20128 168.949 10.2144 168.632 11.1113C168.314 11.9749 168.012 12.4068 167.726 12.4068H165.485C165.422 17.323 165.39 21.3257 165.39 24.4149C165.39 27.4709 165.438 29.5138 165.533 30.5436C165.724 32.2709 166.375 33.6826 167.488 34.7788C167.488 35.1442 166.868 35.6757 165.628 36.3733C164.421 37.0708 163.277 37.4196 162.196 37.4196C162.101 37.4196 161.91 37.2535 161.624 36.9213C161.37 36.5892 161.084 36.0411 160.766 35.2771C160.48 34.5131 160.289 33.7657 160.194 33.0349C160.13 32.3041 160.099 29.6965 160.099 25.2121C160.099 20.7278 160.146 16.4925 160.242 12.5064L157.572 12.5563C157.413 12.3902 157.334 11.676 157.334 10.4137C157.334 9.11824 157.477 8.33762 157.763 8.07188C158.462 8.03867 159.304 8.00545 160.289 7.97223C160.289 6.04561 160.242 4.79995 160.146 4.23525C160.051 3.67056 160.003 3.33838 160.003 3.23873C160.003 2.90655 160.544 2.52455 161.624 2.09272C162.736 1.66089 163.706 1.44498 164.532 1.44498C165.358 1.44498 165.771 1.51141 165.771 1.64428Z" fill="black"/>
<path d="M133.727 10.1147L133.68 12.4566C142.133 12.4566 146.36 15.878 146.36 22.7208C146.36 24.581 145.994 26.2751 145.263 27.8031C144.564 29.2979 143.69 30.4937 142.642 31.3906C141.593 32.2542 140.449 32.985 139.209 33.5829C137.08 34.6127 135.173 35.1276 133.489 35.1276V35.8749C133.489 40.8576 133.616 44.1793 133.87 45.8402C133.457 46.272 132.742 46.6042 131.725 46.8367C130.708 47.1025 129.882 47.2354 129.246 47.2354C128.611 47.2354 128.293 47.1855 128.293 47.0859C128.166 46.0229 128.102 43.8306 128.102 40.5088L128.34 17.3395C128.34 14.6157 128.293 12.7223 128.197 11.6593C128.579 11.2607 129.214 10.8787 130.104 10.5133C131.026 10.1479 131.82 9.96524 132.488 9.96524C133.155 9.96524 133.568 10.0151 133.727 10.1147ZM133.489 27.1055L133.537 29.5968C135.475 29.5968 137.175 29.0155 138.637 27.8529C140.099 26.6903 140.83 25.0128 140.83 22.8204C140.83 19.2329 138.431 17.4392 133.632 17.4392L133.584 18.0869C133.584 18.5188 133.584 19.0835 133.584 19.781L133.489 27.1055Z" fill="black"/>
<path d="M121.251 4.53418C122.14 4.53418 122.856 4.83314 123.396 5.43105C123.936 6.02897 124.206 6.80958 124.206 7.77289C124.206 8.7362 123.841 9.56664 123.11 10.2642C122.411 10.9286 121.616 11.2607 120.726 11.2607C119.868 11.2607 119.169 10.9784 118.629 10.4137C118.12 9.81577 117.866 9.03516 117.866 8.07185C117.866 7.10854 118.216 6.2781 118.915 5.58053C119.614 4.88296 120.393 4.53418 121.251 4.53418ZM123.682 16.9409L123.586 25.0128C123.586 27.6038 123.65 29.5138 123.777 30.7428C123.936 31.9387 124.349 33.0681 125.017 34.131C125.017 34.4632 124.365 34.9947 123.062 35.7255C121.759 36.4563 120.647 36.8217 119.725 36.8217C119.439 36.8217 119.153 36.3234 118.867 35.3269C118.581 34.3303 118.39 33.3836 118.295 32.4868C118.232 31.5899 118.2 28.5671 118.2 23.4184C118.2 18.2696 118.311 15.4628 118.533 14.9977C119.264 14.3998 120.551 14.1008 122.395 14.1008C123.126 14.1008 123.571 14.2005 123.729 14.3998L123.682 16.9409Z" fill="black"/>
<path d="M98.1829 24.6142L98.0399 7.32445C98.0399 4.10235 98.1193 2.40825 98.2782 2.24216C98.6596 1.84355 99.2793 1.46155 100.137 1.09616C100.995 0.730762 101.822 0.548065 102.616 0.548065C103.411 0.548065 103.808 0.6145 103.808 0.747371C103.776 0.913459 103.697 3.23869 103.57 7.72306C103.474 12.2074 103.427 15.114 103.427 16.4427C103.427 17.7382 103.443 18.4856 103.474 18.6849C103.506 18.8509 103.57 18.934 103.665 18.934L103.76 18.8842C104.777 17.7548 106.287 16.343 108.289 14.6489C110.291 12.9548 111.578 12.1078 112.15 12.1078C114.025 13.3368 114.963 14.3334 114.963 15.0974C114.009 15.7285 112.881 16.5922 111.578 17.6883C110.275 18.7845 109.56 19.4821 109.433 19.781C109.433 20.0468 109.703 21.0101 110.243 22.671C110.816 24.2986 111.642 26.2253 112.722 28.4508C113.803 30.6764 114.883 32.3539 115.964 33.4833C115.964 33.8819 115.265 34.3802 113.866 34.9781C112.468 35.576 111.26 35.875 110.243 35.875C109.862 35.875 109.115 34.3137 108.003 31.1913C106.922 28.0688 106.176 25.6439 105.762 23.9166L105.667 23.7671C105.54 23.7671 105.143 24.2488 104.475 25.2121C103.808 26.1754 103.474 26.8232 103.474 27.1553L103.617 32.2376C103.617 33.4335 103.554 34.0978 103.427 34.2307C103.013 34.6625 102.298 34.9947 101.281 35.2272C100.264 35.4597 99.4223 35.576 98.7549 35.576C98.1193 35.576 97.8015 35.5262 97.8015 35.4265C98.0558 33.9649 98.1829 30.3608 98.1829 24.6142Z" fill="black"/>
<path d="M90.3862 5.82969C89.8777 5.76326 89.2898 5.73004 88.6224 5.73004C87.9868 5.73004 87.1923 5.79648 86.2389 5.92935C85.3172 6.06222 84.3479 6.27813 83.331 6.57709C82.3458 6.84283 81.5354 7.27466 80.8998 7.87257C80.2642 8.47049 79.9464 9.20128 79.9464 10.0649C79.9464 10.8954 80.4231 11.6428 81.3765 12.3071C82.3617 12.9383 83.5375 13.5362 84.9041 14.1009C86.2706 14.6323 87.6372 15.2469 89.0038 15.9444C90.4021 16.642 91.5779 17.6718 92.5314 19.0337C93.5165 20.3624 94.0091 21.9734 94.0091 23.8668C94.0091 27.2218 92.4678 30.0785 89.3851 32.437C86.3342 34.7622 82.4729 35.9248 77.8012 35.9248C75.4495 35.9248 73.7015 35.7919 72.5575 35.5262C72.2714 35.2272 72.1284 33.4501 72.1284 30.1948C72.1284 26.9062 72.192 24.9298 72.3191 24.2654C72.4144 23.9665 72.9706 23.6011 73.9876 23.1693C75.0045 22.7374 75.9897 22.5215 76.9431 22.5215C76.9431 26.4412 77.3404 28.8163 78.1349 29.6467C78.4527 29.9789 79.0565 30.145 79.9464 30.145C81.9803 30.145 83.7441 29.547 85.2378 28.3512C86.7632 27.1554 87.526 25.7436 87.526 24.116C87.526 23.0198 87.0334 22.0565 86.0482 21.226C85.063 20.3956 83.8553 19.6814 82.4252 19.0835C81.0269 18.4524 79.6286 17.8046 78.2302 17.1403C76.8319 16.4427 75.6401 15.496 74.6549 14.3002C73.6698 13.1043 73.1772 11.6926 73.1772 10.0649C73.1772 7.64005 74.5596 5.43108 77.3245 3.43803C80.1212 1.41176 84.1573 0.398621 89.4328 0.398621C90.6722 0.398621 91.3714 0.481664 91.5303 0.647752C91.5621 0.747404 91.578 0.996535 91.578 1.39515C91.578 1.76054 91.4667 2.49133 91.2443 3.5875C91.0218 4.68369 90.7358 5.43108 90.3862 5.82969Z" fill="black"/>
</svg>
